<svg width="103" height="76" viewBox="0 0 103 76" fill="none" xmlns="http://www.w3.org/2000/svg">
<path d="M0.0332714 9.46878C1.30246 60.8948 38.5708 75.349 58.1206 76H93C98.5229 76 103 71.5228 103 66V10C103 4.47715 98.5395 0 93.0167 0H9.64841C4.34459 0 -0.0975866 4.16657 0.0332714 9.46878Z" fill="#9876AE"/>
<g clip-path="url(#clip0_253_223)">
<g filter="url(#filter0_d_253_223)">
<path d="M87.8296 30.5L87.6396 30.36L87.8296 30.27L87.7996 28.28V27.67C87.7996 27.67 87.3996 27.62 87.4696 27.58C87.5396 27.54 87.7896 27.38 87.7896 27.38L87.7496 25L48.0596 47.91L48.1696 54.65L87.8496 31.74L87.8296 30.5Z" fill="url(#paint0_linear_253_223)"/>
</g>
<g filter="url(#filter1_d_253_223)">
<path d="M48.06 47.9099L29 36.9099L29.05 40.0699L29.37 40.2499L29.06 40.4499L29.11 43.6499L48.17 54.6499L48.06 47.9099Z" fill="url(#paint1_linear_253_223)"/>
</g>
<path d="M87.73 25L48.06 47.91L29 36.91L68.68 14L87.73 25Z" fill="url(#paint2_linear_253_223)"/>
<path d="M81.9296 23.2301L71.7496 17.3501C70.0596 18.3301 67.3096 18.3301 65.6196 17.3501L34.8096 35.1401C36.4996 36.1201 36.4996 37.7001 34.8096 38.6801L44.9896 44.5601C46.6796 43.5801 49.4296 43.5801 51.1196 44.5601L81.9296 26.7701C80.2396 25.7901 80.2396 24.2101 81.9296 23.2301Z" fill="url(#paint3_linear_253_223)"/>
<path d="M63.98 27.72C67.94 30.01 68.65 33.32 65.55 35.11C62.45 36.9 56.72 36.49 52.76 34.21C48.8 31.92 48.09 28.61 51.19 26.82C54.29 25.03 60.02 25.44 63.98 27.72Z" fill="url(#paint4_linear_253_223)"/>
<path d="M48.6104 36.59C49.5004 37.11 49.5004 37.9399 48.6104 38.4599C47.7204 38.9799 46.2704 38.9799 45.3804 38.4599C44.4904 37.9499 44.4904 37.11 45.3804 36.59C46.2704 36.07 47.7204 36.07 48.6104 36.59Z" fill="url(#paint5_linear_253_223)"/>
<path d="M71.3506 23.4601C72.2406 23.9701 72.2406 24.8101 71.3506 25.3301C70.4606 25.8501 69.0106 25.8501 68.1206 25.3301C67.2306 24.8201 67.2306 23.9801 68.1206 23.4601C69.0106 22.9401 70.4606 22.9401 71.3506 23.4601Z" fill="#C8A9DC"/>
<path d="M72.0204 34.0701L64.4504 38.4401L45.4004 27.4401L52.9704 23.0701L72.0204 34.0701Z" fill="url(#paint6_linear_253_223)"/>
<path d="M72.0202 40.8801L64.4502 45.2501V38.4401L72.0202 34.0701V40.8801Z" fill="url(#paint7_linear_253_223)"/>
<path d="M48.0596 50.32C48.0596 50.32 55.3896 46.27 57.1296 45.24L48.0596 50.88V50.31V50.32Z" fill="#7D3F37"/>
<path d="M48.0596 52.9601L55.5396 48.5901L48.1396 53.1901L48.0596 52.9601Z" fill="#7D3F37"/>
<path d="M72.0195 35.7801L78.5295 32.0901L72.0195 36.2001V35.7801Z" fill="#7D3F37"/>
<path d="M64.4496 42.9399L60.8496 45.2499L64.4496 43.2399V42.9399Z" fill="#7D3F37"/>
<path d="M48.0603 50.3201L43.8203 48.3301L48.0603 50.8901V50.3201Z" fill="#65332C"/>
<path d="M29.3696 40.25L29.0596 40.45L33.7896 42.69L29.3696 40.25Z" fill="#65332C"/>
<path d="M84.6602 31.7101L87.8302 30.5001L87.6302 30.3601L84.6602 31.7101Z" fill="#7D3F37"/>
<path d="M87.46 27.5801L81.54 31.2901L87.78 27.6701C87.78 27.6701 87.39 27.6201 87.46 27.5801V27.5801Z" fill="#7D3F37"/>
</g>
<defs>
<filter id="filter0_d_253_223" x="28.0596" y="9" width="79.79" height="69.6499" filterUnits="userSpaceOnUse" color-interpolation-filters="sRGB">
<feFlood flood-opacity="0" result="BackgroundImageFix"/>
<feColorMatrix in="SourceAlpha" type="matrix" values="0 0 0 0 0 0 0 0 0 0 0 0 0 0 0 0 0 0 127 0" result="hardAlpha"/>
<feOffset dy="4"/>
<feGaussianBlur stdDeviation="10"/>
<feComposite in2="hardAlpha" operator="out"/>
<feColorMatrix type="matrix" values="0 0 0 0 0 0 0 0 0 0 0 0 0 0 0 0 0 0 0.06 0"/>
<feBlend mode="normal" in2="BackgroundImageFix" result="effect1_dropShadow_253_223"/>
<feBlend mode="normal" in="SourceGraphic" in2="effect1_dropShadow_253_223" result="shape"/>
</filter>
<filter id="filter1_d_253_223" x="9" y="20.9099" width="59.1699" height="57.74" filterUnits="userSpaceOnUse" color-interpolation-filters="sRGB">
<feFlood flood-opacity="0" result="BackgroundImageFix"/>
<feColorMatrix in="SourceAlpha" type="matrix" values="0 0 0 0 0 0 0 0 0 0 0 0 0 0 0 0 0 0 127 0" result="hardAlpha"/>
<feOffset dy="4"/>
<feGaussianBlur stdDeviation="10"/>
<feComposite in2="hardAlpha" operator="out"/>
<feColorMatrix type="matrix" values="0 0 0 0 0 0 0 0 0 0 0 0 0 0 0 0 0 0 0.12 0"/>
<feBlend mode="normal" in2="BackgroundImageFix" result="effect1_dropShadow_253_223"/>
<feBlend mode="normal" in="SourceGraphic" in2="effect1_dropShadow_253_223" result="shape"/>
</filter>
<linearGradient id="paint0_linear_253_223" x1="48.0596" y1="39.83" x2="87.8496" y2="39.83" gradientUnits="userSpaceOnUse">
<stop stop-color="#71617B"/>
<stop offset="0.0001" stop-color="#79479A"/>
<stop offset="0.4799" stop-color="#9D7BB3"/>
<stop offset="0.48" stop-color="#665174"/>
<stop offset="1" stop-color="#6F5382"/>
</linearGradient>
<linearGradient id="paint1_linear_253_223" x1="29" y1="45.7799" x2="48.17" y2="45.7799" gradientUnits="userSpaceOnUse">
<stop stop-color="#BC82E2"/>
<stop offset="0.57" stop-color="#B57BDA"/>
<stop offset="1" stop-color="#9E6EBD"/>
</linearGradient>
<linearGradient id="paint2_linear_253_223" x1="30.92" y1="35.16" x2="88.69" y2="26.31" gradientUnits="userSpaceOnUse">
<stop stop-color="#B477DB"/>
<stop offset="0.08" stop-color="#C67FF3"/>
<stop offset="0.6" stop-color="#CE88FB"/>
<stop offset="1" stop-color="#A665CF"/>
</linearGradient>
<linearGradient id="paint3_linear_253_223" x1="92.1996" y1="30.9601" x2="34.8896" y2="30.9601" gradientUnits="userSpaceOnUse">
<stop stop-color="#F2E8CC"/>
<stop offset="1" stop-color="#FFFCF3"/>
</linearGradient>
<linearGradient id="paint4_linear_253_223" x1="58.37" y1="25.7043" x2="58.37" y2="36.2256" gradientUnits="userSpaceOnUse">
<stop stop-color="#BD96D7"/>
<stop offset="1" stop-color="#AA7BC8"/>
</linearGradient>
<linearGradient id="paint5_linear_253_223" x1="31.6404" y1="39.8699" x2="89.4104" y2="31.0199" gradientUnits="userSpaceOnUse">
<stop stop-color="#E9CDFB"/>
<stop offset="0.08" stop-color="#CB9CE9"/>
<stop offset="0.6" stop-color="#CFB3E0"/>
<stop offset="1" stop-color="#A666D0"/>
</linearGradient>
<linearGradient id="paint6_linear_253_223" x1="45.4004" y1="30.7601" x2="72.0204" y2="30.7601" gradientUnits="userSpaceOnUse">
<stop stop-color="#FFFCF3"/>
<stop offset="1" stop-color="#F2E8CC"/>
</linearGradient>
<linearGradient id="paint7_linear_253_223" x1="64.4502" y1="39.6601" x2="72.0202" y2="39.6601" gradientUnits="userSpaceOnUse">
<stop stop-color="#BAA690"/>
<stop offset="0.27" stop-color="#BEAB95"/>
<stop offset="0.62" stop-color="#CAB9A6"/>
<stop offset="1" stop-color="#DED0C0"/>
</linearGradient>
<clipPath id="clip0_253_223">
<rect width="58.85" height="40.65" fill="white" transform="translate(29 14)"/>
</clipPath>
</defs>
</svg>
