<svg width="604" height="138" viewBox="0 0 604 138" fill="none" xmlns="http://www.w3.org/2000/svg">
<path d="M2 140C98.3333 83.0001 353.4 3.20005 603 140H2Z" fill="#46CCBD" stroke="#47CABF" stroke-width="3" stroke-linecap="round"/>
<path d="M298.242 63.6602C298.242 63.4274 296.995 62.7107 295.381 62.2176C293.66 62.7986 291.273 62.3193 290.377 62.1479C290.103 62.8646 290.015 63.5438 290.155 63.6849C290.423 63.9516 298.242 63.9104 298.242 63.6602Z" fill="#13375B"/>
<path d="M269.301 63.7198C270.858 63.8747 275.402 64.0387 276.725 63.8691C276.725 63.8691 276.973 63.8206 276.799 62.7565C276.755 62.4963 276.712 62.2589 276.672 62.049C275.471 62.3642 272.856 61.6933 271.82 61.5558C270.696 62.0938 269.427 62.8986 269.017 62.9664C268.425 63.0635 268.426 63.6327 269.301 63.7198Z" fill="#13375B"/>
<path d="M290.42 59.0242C290.42 59.0242 290.561 60.4229 290.561 61.0398C290.561 61.6557 289.987 63.3943 290.254 63.6601C290.52 63.9259 298.119 63.8929 298.119 63.6427C298.119 63.3925 296.776 62.6336 294.951 62.113C293.126 61.5915 292.505 59.5696 292.979 58.4083L290.42 59.0242Z" fill="#F47458"/>
<path d="M249.82 57.9969C249.82 57.9969 249.361 59.6247 248.997 59.9885C248.634 60.3525 247.43 61.762 247.726 62.4614C248.023 63.1608 255.364 64.1625 255.644 63.8839C255.922 63.6052 254.375 62.4266 253.498 61.7034C252.62 60.9803 251.993 60.0913 252.36 59.0125C252.729 57.9337 252.728 58.0409 252.728 57.9337C252.728 57.8274 249.82 57.9969 249.82 57.9969Z" fill="#F7A491"/>
<path d="M255.644 63.8839C255.976 63.6346 254.944 62.521 253.449 61.6622C252.824 61.6613 251.988 61.6192 251.282 61.4422C250.176 61.1664 249.327 60.2067 249.076 59.8961C249.052 59.9281 247.272 61.642 247.619 62.4614C247.916 63.1608 254.98 64.3816 255.644 63.8839Z" fill="#355389"/>
<path d="M262.004 58.7878C262.004 58.7878 262.139 60.4597 261.863 60.8932C261.588 61.3275 260.625 63.048 261.161 63.5841C261.646 64.069 268.373 63.7574 268.582 63.4247C268.795 63.0928 267.643 62.0993 266.63 61.5851C265.616 61.0709 264.808 60.3405 264.932 59.2076C265.055 58.0748 265.079 58.1792 265.055 58.0748C265.032 57.9702 262.004 58.7878 262.004 58.7878Z" fill="#F7A491"/>
<path d="M269.418 63.6934C269.769 63.4708 268.218 62.0685 266.572 61.5561C265.961 61.6917 265.137 61.8329 264.409 61.8146C263.269 61.7862 262.231 61.0355 261.917 60.7862C261.903 60.8229 260.37 63.0418 261.057 63.6082C261.594 64.05 268.886 64.0307 269.418 63.6934Z" fill="#355389"/>
<path d="M316.658 15.0939C316.816 15.0836 318.006 17.0054 318.752 19.9555C319.497 22.9045 321.085 28.3488 321.085 28.3488C321.085 28.3488 323.662 33.5505 324.358 34.2469C325.055 34.9442 325.731 34.2234 326.433 34.4415C326.65 34.5091 327.318 35.0899 327.318 35.0899C327.318 35.0899 328.523 37.6988 328.345 37.8774C328.167 38.055 326.303 38.5578 325.007 38.1367C323.71 37.7148 317.682 30.6503 317.682 30.6503C317.682 30.6503 312.769 15.3552 316.658 15.0939Z" fill="#F48C7F"/>
<path d="M340.206 16.9986L339.622 16.3934C339.622 16.3934 338.553 18.3144 337.322 21.036C336.091 23.7586 334.615 27.1127 334.113 27.6155C333.611 28.1174 329.382 33.9338 328.102 34.5014C326.822 35.0681 327.217 34.82 326.189 34.6969C325.417 34.6038 325.502 35.163 326.004 35.4224C326.139 35.4919 326.293 35.538 326.602 35.757C327.213 36.1911 327.737 36.8076 328.12 37.1666C328.269 37.3057 327.959 37.5595 327.785 37.3856C327.604 37.2052 326.995 36.2644 326.741 36.2644C326.485 36.2644 326.655 36.9082 326.765 37.115C326.874 37.3217 326.631 37.2606 326.412 36.7503C326.194 36.24 326.036 35.7297 325.719 35.8021C325.464 35.8613 325.62 36.5671 325.691 36.8387C325.618 36.5802 325.416 35.9365 325.221 35.9365C324.979 35.9365 324.869 35.9609 324.869 36.4402C324.869 36.9204 325.039 37.4354 325.598 37.8583C326.157 38.2822 327.722 37.9993 328.366 37.7427C328.805 37.5679 329.242 36.8546 329.682 36.6169C331.648 35.5558 333.669 34.2899 336.172 30.9537C339.234 26.8703 340.429 23.2239 340.429 23.2239L340.206 16.9986Z" fill="#F4C0B8"/>
<path d="M339.072 63.3296C339.072 63.3296 338.747 61.9688 339.072 60.3157C339.396 58.6626 341.146 50.2364 341.146 48.4865C341.146 46.7366 341.989 44.1766 341.989 44.1766L336.836 42.8797L336.317 47.9029C336.317 47.9029 336.042 59.6193 335.572 60.0892C335.102 60.5591 333.114 61.2526 332.493 61.2526C331.797 61.2526 330.694 61.2996 330.694 61.6502C330.694 62.0007 330.791 62.2282 330.791 62.2282L339.072 63.3296Z" fill="#F4C0B8"/>
<path d="M345.208 43.437L345.845 47.7733C345.845 47.7733 347.362 60.4821 347.012 60.8317C346.662 61.1813 345.073 62.2057 344.344 62.2865C343.615 62.3673 342.588 62.8598 342.588 63.2488C342.588 64.0345 350.787 63.3964 350.787 63.3964C350.787 63.3964 351.047 62.8109 350.787 61.9519C350.529 61.0939 350.529 59.8778 350.529 59.6842C350.529 59.4897 350.545 59.6513 350.545 59.344C350.545 59.0357 350.545 58.938 350.545 58.938C350.545 58.938 351.533 52.8782 350.48 49.0532L350.107 41.6317L345.208 43.437Z" fill="#F4C0B8"/>
<path d="M311.111 1.03246C311.111 1.03246 309.216 1.0099 307.903 1.75046C306.595 2.4882 306.244 4.24844 306.22 5.6243C306.188 7.40145 306.77 9.18988 307.878 10.5845C308.988 11.9811 310.941 12.6079 310.941 12.6079L316.437 9.10529C316.437 9.10529 317.091 7.47288 316.629 5.28597C316.167 3.09813 316.288 0.691311 311.111 1.03246Z" fill="#184655"/>
<path d="M320.372 57.6861C320.372 57.6861 322.187 60.295 322.316 60.6521C322.446 61.0083 323.338 63.3738 323.338 63.3738L330.305 59.9877L324.974 58.3666L323.904 56.033L320.372 57.6861Z" fill="#F48C7F"/>
<path d="M311.233 39.2173L316.921 51.0794L320.664 58.5658C320.664 58.5658 323.985 57.2858 324.812 56.4588L322.123 47.0279L319.06 36.1066L312.621 35.5211L311.233 39.2173Z" fill="#355389"/>
<path d="M305.869 58.89C305.869 58.89 306.128 60.6399 306.128 60.7536C306.128 60.8664 305.739 62.5514 305.675 63.0053C305.61 63.4592 305.675 63.8154 305.675 63.8154L312.278 62.2356C312.278 62.2356 311.298 61.5956 310.422 61.1098C309.547 60.6239 309.418 58.3064 309.418 58.3064L305.869 58.89Z" fill="#F48C7F"/>
<path d="M304.945 36.1065C304.945 36.1065 306.076 43.2208 305.917 45.6022C305.689 49.0203 304.783 50.3341 305.431 59.2979H310.034C310.034 59.2979 310.358 54.4823 311.07 50.7551C311.784 47.0279 313.339 40.7736 313.339 40.7736L315.899 35.0023L304.945 36.1065Z" fill="#86B1F2"/>
<path d="M307.608 9.35725C307.83 10.0527 308.391 10.4944 308.861 10.345C309.331 10.1946 309.532 9.50949 309.31 8.81404C309.088 8.1186 308.528 7.67689 308.057 7.82726C307.587 7.97763 307.387 8.66274 307.608 9.35725Z" fill="#F48C7F"/>
<path d="M315.423 7.87331C315.485 8.60071 315.933 9.15613 316.426 9.11478C316.917 9.07249 317.265 8.44941 317.204 7.72201C317.142 6.99461 316.693 6.43918 316.201 6.48053C315.71 6.52282 315.362 7.14591 315.423 7.87331Z" fill="#F48C7F"/>
<path d="M305.379 16.3843C305.379 16.3843 305.914 30.1796 305.379 32.7565C304.845 35.3334 304.599 37.0044 304.599 37.0044C304.599 37.0044 311.991 38.4442 319.088 36.5486C319.088 36.5486 318.018 31.7359 317.532 26.7287C317.047 21.7214 316.658 15.094 316.658 15.094C316.658 15.094 313.967 14.8929 311.894 15.0837C307.182 15.515 305.379 16.3843 305.379 16.3843Z" fill="#FAE0B2"/>
<path d="M309.775 11.1438L309.566 14.918C309.566 14.918 309.92 17.0015 311.986 17.1228C314.052 17.2449 313.444 12.7969 313.444 12.7969L313.323 11.1438H309.775Z" fill="#F48C7F"/>
<path d="M305.8 61.6164C305.8 61.6164 306.044 61.373 306.894 61.4463C307.745 61.5186 312.01 61.9932 312.193 61.9932C312.375 61.9932 314.816 63.8465 314.926 64.182C315.035 64.5185 309.652 64.2985 309.652 64.2985H305.555C305.555 64.2985 305.168 63.0749 305.8 61.6164Z" fill="#3C8F7C"/>
<path d="M322.705 61.5271C322.705 61.5271 322.456 61.6944 322.456 61.9218C322.456 62.0722 322.71 63.0965 323.004 63.8249C323.175 64.2497 323.68 64.4292 324.081 64.2083L331.472 60.1334C331.472 60.1334 332.011 59.6663 328.524 59.4464L322.705 61.5271Z" fill="#3C8F7C"/>
<path d="M305.379 16.3842C305.379 16.3842 304.33 16.8438 303.714 18.2694C303.098 19.696 301.121 26.1449 302.45 30.0018C302.45 30.0018 303.049 32.934 306.127 34.9433C309.206 36.9526 314.575 37.4356 314.879 37.1321C315.182 36.8276 315.194 36.3013 315.194 35.9629C315.194 35.6246 315.899 35.4545 315.899 34.9931C315.899 34.5307 314.709 34.4499 313.339 34.4499C313.339 34.4499 313.097 34.4254 313.397 34.199C313.695 33.9715 314.077 33.6877 314.012 33.2592C313.947 32.8297 313.667 32.8494 313.404 33.1125C313.141 33.3766 312.27 34.0852 311.573 33.8822C310.876 33.6802 306.761 30.3016 306.079 29.2321C306.079 29.2321 306.352 16.6145 305.379 16.3842Z" fill="#F48C7F"/>
<path d="M339.623 16.3935C339.623 16.3935 341.841 15.1624 344.196 14.887C346.551 14.6107 349.929 15.4941 349.929 15.4941L351.877 43.6213C351.877 43.6213 343.127 47.777 336.564 43.6213C336.564 43.6213 338.327 31.8109 338.327 30.1512C338.327 28.4906 338.327 28.4906 338.327 28.4906L339.623 16.3935Z" fill="#50BFA5"/>
<path d="M330.698 61.8955C330.464 61.8692 330.244 62.0064 330.165 62.2282C330.074 62.4829 330.115 62.7103 330.305 62.9011C330.654 63.2498 336.734 64.2459 338.857 64.199C339.082 64.1933 339.404 63.5242 339.072 63.3296C338.553 63.0261 332.301 62.0769 330.698 61.8955Z" fill="#13375B"/>
<path d="M332.493 61.2527L332.995 62.2761L334.113 62.5844C334.113 62.5844 333.595 60.7536 333.141 60.8345C332.688 60.9153 332.493 61.2527 332.493 61.2527Z" fill="#13375B"/>
<path d="M342.587 63.3146C342.374 63.3137 342.182 63.449 342.116 63.6511C342.063 63.8146 342.045 64.0016 342.166 64.1238C342.426 64.3832 351.134 64.2046 351.134 64.2046C351.134 64.2046 351.344 63.5571 350.965 63.4274C350.715 63.3409 344.101 63.3184 342.587 63.3146Z" fill="#13375B"/>
<path d="M345.211 61.919C345.133 61.7771 344.533 61.9284 344.344 62.2864L345.116 63.3954L346.023 63.3926L345.211 61.919Z" fill="#13375B"/>
<path d="M349.929 15.4941C349.929 15.4941 348.033 17.7308 349.006 21.474C349.977 25.2172 352.327 31.1802 355.228 34.4995C355.698 35.0371 356.783 36.1714 357.269 36.4957C357.756 36.8199 359.813 37.0464 359.813 37.0464C359.813 37.0464 360.721 34.259 360.462 33.9996C360.202 33.7402 358.023 33.7167 357.432 33.1246C356.84 32.5335 351.096 15.4941 349.929 15.4941Z" fill="#F4C0B8"/>
<path d="M360.758 35.0127C360.758 35.0127 361 35.0371 361 35.5107C361 35.9853 360.587 36.7137 360.307 36.9937C360.028 37.2729 357.468 36.5934 357.468 36.5934C357.468 36.5934 358.4 36.6169 358.717 36.2222C358.86 36.0455 359.129 35.2194 359.397 35.2194C359.664 35.2194 359.372 36.3378 359.372 36.3378C359.372 36.3378 359.883 34.867 360.149 34.867C360.416 34.867 360.442 35.1339 360.32 35.5841C360.198 36.0333 360.593 34.883 360.758 35.0127Z" fill="#F4C0B8"/>
<path d="M326.004 34.6217C326.004 34.6217 326.73 35.0916 327.162 34.9882C327.593 34.8848 327.381 34.664 327.178 34.4619C326.976 34.2589 326.432 33.9995 326.432 33.9995L326.004 34.6217Z" fill="#F48C7F"/>
<path d="M311.648 3.01256C310.472 3.18642 309.611 4.02002 308.985 5.03781C307.745 7.05555 308.754 10.0253 309.094 10.7057C309.434 11.3861 310.795 13.137 312.813 13.137C314.83 13.137 316.24 11.2893 316.41 9.49056C316.638 7.08281 315.993 4.08111 313.701 3.24375C313.076 3.01632 312.336 2.91106 311.648 3.01256Z" fill="#F48C7F"/>
<path d="M344.119 3.07379C344.119 3.07379 343.123 3.02493 342.005 3.55967C340.886 4.09441 339.72 6.49935 339.72 8.63832C339.72 9.93994 339.144 10.4775 338.693 10.6983C338.45 10.8168 338.386 11.1316 338.564 11.3337C339.005 11.8355 339.464 12.3853 340.042 12.7227C342.235 13.998 344.444 14.0374 346.91 13.5854C348.893 13.2217 350.764 12.3289 352.171 10.8647C352.436 10.5893 352.363 10.1345 352.027 9.95404C351.561 9.70405 351.012 9.16554 350.804 8.00772C350.415 5.84431 349.612 2.02874 344.119 3.07379Z" fill="#13375B"/>
<path d="M347.091 8.97574C346.933 9.6881 347.194 10.3525 347.676 10.4597C348.158 10.5668 348.676 10.0762 348.835 9.36387C348.993 8.65151 348.731 7.98708 348.25 7.87994C347.769 7.77281 347.25 8.26338 347.091 8.97574Z" fill="#F4C0B8"/>
<path d="M339.966 8.02558C339.966 8.7558 340.366 9.34692 340.859 9.34692C341.353 9.34692 341.753 8.7558 341.753 8.02558C341.753 7.2963 341.353 6.70422 340.859 6.70422C340.366 6.70422 339.966 7.2963 339.966 8.02558Z" fill="#F4C0B8"/>
<path d="M342.993 12.7235L342.75 16.0616C342.75 16.0616 342.864 16.8228 343.771 16.9854C344.678 17.1471 346.607 15.8022 346.607 15.0889L346.153 11.2329L342.993 12.7235Z" fill="#F4C0B8"/>
<path d="M342.875 14.3522C344.308 14.4236 345.461 13.777 346.314 12.6004L346.153 11.233L342.993 12.7235L342.875 14.3522Z" fill="#F7A491"/>
<path d="M340.765 9.73411C340.984 10.9737 341.349 13.155 343.293 13.3796C345.238 13.6042 346.696 12.5535 347.62 10.6579C348.543 8.76142 348.325 6.25781 347.814 5.01822C347.409 4.03331 345.658 4.0803 344.798 4.09534C341.916 4.14327 340.281 6.98897 340.765 9.73411Z" fill="#F4C0B8"/>
<path d="M343.609 3.69766C343.609 3.69766 343.579 5.29155 344.905 6.61854C346.232 7.94553 348.899 8.63816 348.899 8.63816L349.216 9.38623C349.216 9.38623 349.637 7.00291 348.632 5.4156C347.628 3.82735 343.609 3.69766 343.609 3.69766Z" fill="#13375B"/>
<path d="M275.541 54.3895C275.541 54.3895 274.184 59.918 273.173 60.7861C272.163 61.6541 268.869 63.3147 269.731 63.4935C270.593 63.6722 276.973 63.8208 276.799 62.7567C276.623 61.6916 276.44 61.0133 276.44 61.0133L278.127 57.064L275.541 54.3895Z" fill="#F47458"/>
<path d="M282.169 35.652L280.805 36.8608C280.805 36.8608 279.271 41.0147 279.182 41.2896C279.058 41.6709 274.088 57.6883 274.088 57.6883L277.55 58.9338C277.55 58.9338 280.984 52.2449 281.552 49.9224C282.121 47.5991 287.811 37.8801 287.811 37.8801L282.169 35.652Z" fill="#86B1F2"/>
<path d="M288.191 38.1165L289.849 59.3462H293.689C293.689 59.3462 295.064 43.4581 294.59 37.88L288.191 38.1165Z" fill="#86B1F2"/>
<path d="M267.615 23.3254C267.615 23.3254 268.781 29.03 269.806 30.0546C270.389 30.6375 271.978 32.9966 273.2 32.9966C274.173 32.9966 274.752 33.0673 274.915 33.0673C275.295 33.0673 274.868 35.3907 274.513 35.7463C274.513 35.7463 274.394 36.1019 273.683 36.1019C272.972 36.1019 269.203 33.5182 268.065 32.3798C266.927 31.2425 264.817 25.032 264.817 25.032L267.615 23.3254Z" fill="#F7A491"/>
<path d="M286.341 16.1659C286.341 16.1659 284.871 17.8727 282.928 20.7645C280.985 23.657 276.016 31.6859 275.484 32.2175C275.355 32.3468 274.952 32.6052 274.952 32.6052C274.952 32.6052 274.256 32.4549 273.88 32.5933C273.513 32.729 273.02 33.4393 273.194 33.6125C273.367 33.7867 274.037 33.2055 274.243 33.212C274.447 33.2184 274.466 33.2174 274.466 33.3283C274.466 33.4393 273.634 33.8975 273.398 33.9608C273.161 34.024 272.537 34.9836 272.655 35.3035C272.774 35.6234 272.766 35.7306 273.067 35.7306C273.367 35.7306 273.414 35.967 273.667 35.967C273.921 35.967 273.983 35.6518 274.268 35.7782C274.553 35.9038 274.632 35.8727 275.516 35.3356C276.401 34.7985 278.053 32.7986 278.883 31.9692C279.711 31.1397 287.29 22.8825 287.29 22.8825L286.341 16.1659Z" fill="#F47458"/>
<path d="M289.558 3.45212C289.558 3.45212 287.749 2.7962 286.579 4.62937C285.409 6.46253 286.042 6.28879 285.473 7.20531C284.904 8.12196 283.419 7.93227 283.419 9.35456C283.419 10.7769 284.083 10.998 284.083 10.998C284.083 10.998 283.48 12.1044 284.145 13.2422C284.81 14.38 286.464 15.36 287.85 15.2018C287.85 15.2018 289.929 16.3423 292.016 15.8036C294.101 15.2651 293.374 15.2651 294.227 15.2651C295.082 15.2651 297.388 14.0956 297.01 12.3888C297.01 12.3888 298.415 10.7187 297.051 9.35456C295.687 7.99041 295.429 6.60476 294.64 4.7716C293.849 2.93843 290.506 3.00961 289.558 3.45212Z" fill="#184655"/>
<path d="M263.821 15.5201C264.089 15.6129 265.189 16.3956 265.829 17.6282C266.469 18.8609 268.159 24.0127 268.159 24.0127L265.377 25.0319L263.821 15.5201Z" fill="#50BFA5"/>
<path d="M262.495 35.1136L258.152 47.6968L253.172 59.3459L248.999 58.2974C248.999 58.2974 250.505 50.2228 251.919 47.6866C252.989 45.7674 253.737 34.7524 253.737 34.7524L262.495 35.1136Z" fill="#F47458"/>
<path d="M260.409 37.2318L261.914 59.3461H265.469C265.469 59.3461 267.022 36.1769 266.454 33.9725C265.884 31.7682 259.96 32.2659 259.96 32.2659L260.409 37.2318Z" fill="#B75742"/>
<path d="M263.822 15.5201C263.822 15.5201 259.239 14.1469 258.533 14.2357C257.761 14.3327 255.884 15.3272 255.884 15.3272C255.884 15.3272 255.998 23.2832 255.667 25.5323C255.336 27.7815 253.012 34.9873 253.012 34.9873C253.012 34.9873 256.283 36.8845 261.783 36.2678C267.282 35.6518 266.903 34.3238 266.903 34.3238C266.903 34.3238 266.381 26.3591 265.86 22.8505C265.338 19.3421 263.822 15.5201 263.822 15.5201Z" fill="#96D9C9"/>
<path d="M254.087 22.8821C254.087 22.8821 254.087 26.9277 254.087 27.7811C254.087 28.6344 255.067 34.4123 256.267 36.391C257.469 38.369 259.097 40.576 259.433 40.7025C259.771 40.8289 260.504 41.2927 260.883 40.9133C261.262 40.5347 261.561 40.708 262.035 40.5026C262.51 40.2974 261.972 39.6181 261.309 38.9537C260.645 38.2902 260.504 38.1325 260.615 38.0216C260.724 37.9107 261.262 38.5275 261.546 38.4322C261.83 38.3378 261.372 37.3424 260.63 36.9941C259.886 36.6468 258.701 35.9667 258.592 35.6038C258.481 35.2398 258.481 35.3352 258.481 35.2398C258.481 35.1455 257.643 29.4089 257.643 28.287C257.643 27.1642 257.311 23.5136 257.311 23.5136L254.087 22.8821Z" fill="#F7A491"/>
<path d="M294.922 16.735C294.922 16.735 292.481 16.095 289.707 15.9409C288.27 15.8611 286.341 16.166 286.341 16.166C286.341 16.166 284.587 20.101 284.065 23.3255C283.543 26.5488 280.699 36.8847 280.699 36.8847C280.699 36.8847 286.483 41.3409 294.922 38.4016V16.735Z" fill="#F7A491"/>
<path d="M294.922 16.7349C294.922 16.7349 294.257 17.4008 293.547 19.9267C292.835 22.4528 292.473 28.3662 291.856 28.9821C291.24 29.5989 287.211 32.8068 286.484 32.696C285.756 32.586 284.129 30.6897 283.623 30.6897C283.117 30.6897 283.18 31.1479 283.433 31.4C283.687 31.653 283.995 31.9453 283.844 32.0956C283.694 32.246 283.694 32.246 283.694 32.246C283.694 32.246 281.443 31.653 281.063 31.8748C280.684 32.0956 281.426 32.6171 281.426 32.9966C281.426 33.376 281.334 33.3687 281.379 33.7867C281.425 34.2045 281.529 34.5373 281.728 34.7352C281.925 34.9323 284.414 35.6517 286.846 35.3199C289.28 34.9873 292.251 33.8187 294.449 31.1002C296.645 28.3817 296.204 19.8388 296.156 18.9868C296.029 16.8296 294.922 16.7349 294.922 16.7349Z" fill="#F47458"/>
<path d="M288.349 13.2104C288.349 13.2104 288.425 15.7275 288.189 15.964C287.952 16.2003 287.622 16.5924 287.97 17.1929C288.318 17.7934 289.826 17.4102 290.53 17.0664C291.205 16.7366 291.64 16.1227 291.64 16.1227L291.289 12.1358L288.349 13.2104Z" fill="#F47458"/>
<path d="M289.351 14.2537C289.837 14.0841 290.683 13.7565 291.337 12.6944L291.287 12.1361L288.347 13.2107C288.347 13.2107 288.366 13.8248 288.357 14.4749C288.768 14.4579 289.12 14.3347 289.351 14.2537Z" fill="#B75742"/>
<path d="M256.327 15.1326C255.896 15.1863 254.727 15.613 254.317 17.0036C253.905 18.3944 252.822 22.3447 253.012 24.2731C253.012 24.2731 257.627 24.8735 257.627 24.6838C257.627 24.494 258.636 19.5484 258.133 17.383C257.692 15.4943 257.076 15.0391 256.327 15.1326Z" fill="#50BFA5"/>
<path d="M248.646 4.35919C248.646 4.35919 248.403 5.47825 249.571 5.87183C250.739 6.26541 251.464 2.1574 252.128 1.34558C252.792 0.533751 254.806 0.312399 255.853 1.93333C256.428 2.8246 256.608 3.21241 256.654 3.38114C256.69 3.51919 256.637 3.51026 256.637 3.51026L256.321 4.10073C256.321 4.10073 255.309 3.4857 254.926 4.6086C254.544 5.73151 255.671 7.56916 254.705 9.09425C253.739 10.6194 251.967 9.54055 251.967 9.54055C250.497 10.5281 248.806 9.02046 248.263 7.59371C247.719 6.16707 248.646 4.35919 248.646 4.35919Z" fill="#F7CC7F"/>
<path d="M260.17 10.0451L260.009 11.696L258.533 14.2355C258.533 14.2355 261.446 17.7601 262.345 16.918C262.545 16.7299 263.052 12.9993 263.052 12.9993L260.17 10.0451Z" fill="#F7A491"/>
<path d="M260.009 11.6962L259.701 12.26C260.608 13.0749 261.774 13.8078 262.875 14.2297C262.978 13.5453 263.052 12.9995 263.052 12.9995L260.169 10.0453L260.009 11.6962Z" fill="#F48C7F"/>
<path d="M263.167 4.62281C263.167 4.62281 263.937 5.32084 264.22 5.71506C265.903 8.06094 264.539 12.6865 263.66 13.071C262.33 13.6535 260.598 12.8702 258.646 11.5468C256.695 10.2235 256.079 8.07924 257.866 6.21528C259.651 4.35144 263.167 4.62281 263.167 4.62281Z" fill="#F7A491"/>
<path d="M256.693 4.20911L257.225 3.69991C259.309 3.69991 260.972 2.44303 263.312 3.70688C264.856 4.54106 264.222 5.71463 264.222 5.71463C258.502 5.71463 260.565 10.2222 259.865 12.0157C259.164 13.8093 254.79 9.93041 256.693 4.20911Z" fill="#F7CC7F"/>
<path d="M260.693 9.28519C260.693 9.28519 260.613 7.80592 259.705 8.09904C258.798 8.39216 259.505 10.6211 260.257 10.5429C261.011 10.4647 260.693 9.28519 260.693 9.28519Z" fill="#F7A491"/>
<path d="M291.806 9.28938C291.806 9.28938 291.878 7.80982 292.787 8.09704C293.696 8.38439 293.003 10.6179 292.249 10.5444C291.495 10.471 291.806 9.28938 291.806 9.28938Z" fill="#F47458"/>
<path d="M256.543 3.09386C256.543 3.09386 257.405 3.62819 257.752 3.58383C258.099 3.53925 257.219 4.66618 256.754 4.78306C256.288 4.89994 256.452 4.4509 256.354 4.29719C256.254 4.14348 255.892 4.26309 255.809 4.14952C255.617 3.8908 256.136 3.14324 256.543 3.09386Z" fill="#50BFA5"/>
<path d="M272.614 35.6517C272.614 35.6517 273.41 34.4189 273.672 34.3594C273.932 34.2998 273.612 35.2007 273.612 35.3666C273.612 35.5326 274.086 34.099 274.347 34.099C274.608 34.099 274.644 34.2887 274.537 34.6553C274.43 35.0229 274.181 35.4977 274.301 35.4977C274.419 35.4977 274.756 33.9029 274.952 34.099C275.147 34.2943 275.072 35.5976 274.703 35.9669C274.333 36.3364 273.247 36.1063 272.614 35.6517Z" fill="#F7A491"/>
<path d="M284.566 23.384C284.699 23.2428 285.087 22.6892 285.748 22.9092C286.32 23.0989 286.546 23.6882 286.708 23.9549C286.661 23.6863 286.554 23.2235 286.68 22.6993C287.017 21.3043 288.725 21.43 288.694 22.724C288.682 23.2318 288.499 23.5416 288.241 24.0869C288.346 23.9724 288.662 23.591 289.093 23.3684C290.354 22.7194 291.03 24.3013 290.139 25.1419C289.677 25.5763 289.091 25.5873 288.733 25.6295C289.044 25.7165 289.23 25.7421 289.533 25.9356C291.108 26.9337 288.918 29.6283 287.734 27.0336C287.731 27.0308 287.726 27.0308 287.722 27.029C287.776 27.3966 287.88 27.8465 287.729 28.3662C287.319 29.7741 285.447 29.5266 285.771 27.9327C285.873 27.4351 286.205 26.9062 286.225 26.8659C285.999 27.1069 285.665 27.5065 285.184 27.6944C283.943 28.1793 283.352 26.4287 284.495 25.6899C285.005 25.36 285.514 25.4077 285.693 25.36C285.269 25.2574 284.87 25.1391 284.581 24.7835C284.189 24.3023 284.4 23.8284 284.388 23.7634C284.447 23.6369 284.506 23.5104 284.566 23.384ZM286.787 26.1015C287.111 26.2701 287.518 26.0538 287.683 25.7421C287.911 25.3106 287.767 24.8669 287.444 24.7148C287.107 24.5562 286.717 24.7083 286.511 25.119C286.32 25.4994 286.45 25.9603 286.787 26.1015Z" fill="#FAE0B2"/>
<path d="M288.949 4.45602C288.949 4.45602 287.526 4.42446 286.799 5.53069C286.072 6.63691 285.282 9.79753 286.484 11.9784C287.685 14.1592 289.218 13.6219 289.849 13.4006C290.482 13.1795 291.73 12.6896 292.363 10.6509C292.994 8.61221 292.536 4.02926 288.949 4.45602Z" fill="#F47458"/>
<path d="M244.91 2.36822C245.05 2.55311 245.138 2.76774 245.196 2.99194C245.196 3.03019 245.435 3.74106 244.963 4.43066C245.099 3.92594 245.25 3.36597 244.91 2.36822Z" fill="#6B4744"/>
<path d="M381.247 11.9513C382.262 10.8536 384.396 6.28404 385.118 4.98579C385.103 4.85592 385.046 4.09934 385.613 2.99132C386.015 2.20852 386.117 0.608555 386.552 0.955524C386.987 1.30249 386.36 2.69906 386.759 2.61639C387.157 2.53264 388.655 -0.289869 389.048 0.0244675C389.444 0.338806 387.863 2.90572 388.219 2.83176C388.576 2.75671 389.775 0.249622 390.333 0.694481C390.89 1.13934 388.666 3.5047 388.966 3.74334C389.265 3.98208 390.63 2.45216 391.079 2.81001C391.527 3.1685 389.12 4.80523 389.33 4.76162C389.54 4.71789 391.041 4.32884 391.114 4.63687C391.196 4.98525 387.477 6.40901 387.13 7.12448C386.469 9.05826 385.311 12.5794 383.782 14.3584C381.909 16.5352 376.522 22.5714 376.522 22.5714L374.284 18.3268C374.284 18.3268 380.045 13.2531 381.247 11.9513Z" fill="#966259"/>
<path d="M363.328 57.0063C363.328 57.0063 362.986 59.9778 362.43 61.2728C361.874 62.5688 360.041 63.3873 358.429 63.7053C356.817 64.0224 357.354 64.2763 357.591 64.5128C357.827 64.7492 364.814 64.9087 366.046 64.6851C366.046 64.6851 365.572 62.2525 365.572 61.8741C365.572 61.4946 367.5 55.5206 367.5 55.5206L363.328 57.0063Z" fill="#966259"/>
<path d="M366.046 64.6851C366.046 64.6851 365.95 64.1902 365.843 63.6118C364.495 63.7924 361.412 63.4771 359.866 63.2966C359.393 63.4753 358.819 63.5294 358.346 63.6228C356.734 63.9399 356.854 64.3625 357.259 64.6567C357.53 64.8538 364.813 64.9087 366.046 64.6851Z" fill="#F47458"/>
<path d="M377.076 56.3106C377.076 56.3106 376.887 59.9612 377.278 61.2727C377.682 62.6246 378.258 62.8565 379.84 63.2964C381.395 63.7291 380.804 64.4202 380.569 64.6567C380.333 64.8931 374.894 64.9087 373.662 64.685C373.662 64.685 374.136 62.2526 374.136 61.8741C374.136 61.4946 373.559 55.3547 373.559 55.3547L377.076 56.3106Z" fill="#966259"/>
<path d="M373.661 64.6851C373.661 64.6851 373.758 64.1902 373.864 63.6118C375.212 63.7924 378.296 63.477 379.84 63.2965C380.375 63.4267 380.807 63.533 381.279 63.7053C382.822 64.269 382.684 64.4202 382.447 64.6566C382.211 64.8931 374.894 64.9087 373.661 64.6851Z" fill="#F47458"/>
<path d="M366.91 17.1659C366.91 17.1659 366.377 17.4975 365.997 18.4777C365.618 19.4576 363.65 27.5178 363.366 28.6863C363.146 29.5901 361.151 32.2415 360.161 33.5183C359.869 33.895 359.644 34.2103 359.502 34.2103C358.633 34.2103 357.191 34.6924 357.191 35.0526C357.191 35.4119 357.532 35.4504 358.099 35.3239C358.669 35.1974 358.238 35.8142 358.033 36.0196C357.828 36.2248 356.952 37.3962 357.262 37.7069C357.572 38.0167 358.317 38.2321 358.664 38.2321C358.853 38.2321 359.237 38.211 359.937 37.64C360.526 37.1588 361.393 36.1754 362.029 35.609C364.315 33.5696 366.195 29.2875 366.543 28.3078C366.89 27.328 366.91 17.1659 366.91 17.1659Z" fill="#966259"/>
<path d="M361.59 57.3016C361.59 57.3016 365.289 58.297 369.483 58.297C373.68 58.297 381.928 56.1642 381.928 56.1642C381.928 56.1642 379.653 50.6649 378.871 46.4453C378.088 42.2264 377.52 34.973 377.52 34.973H365.002L364.219 39.9938L361.59 57.3016Z" fill="#466EB6"/>
<path d="M364.452 5.62829C364.452 5.62829 362.178 6.27415 362.366 8.60837C362.54 10.7609 363.599 10.6518 363.599 10.6518C363.599 10.6518 362.825 13.7039 365.164 14.5889C367.369 15.4233 368.197 14.5889 368.197 14.5889C368.197 14.5889 369.154 17.1234 372.425 16.1448C375.697 15.1664 375.404 13.1823 375.404 13.1823C375.404 13.1823 376.798 13.7305 378.41 11.1704C380.022 8.6104 379.101 6.76642 376.968 5.62829C376.968 5.62829 377.678 2.36851 374.418 1.84776C371.155 1.32599 370.355 3.11608 370.355 3.11608C370.355 3.11608 369.775 1.11749 366.301 2.4926C364.025 3.39374 364.452 5.62829 364.452 5.62829Z" fill="#13375B"/>
<path d="M373.464 10.5152C373.224 11.1853 373.397 11.8594 373.849 12.0225C374.303 12.1846 374.864 11.7724 375.104 11.1023C375.345 10.4331 375.173 9.75806 374.719 9.59597C374.266 9.43288 373.704 9.84504 373.464 10.5152Z" fill="#966259"/>
<path d="M366.05 11.1794C366.159 11.8826 366.634 12.3926 367.108 12.3181C367.584 12.2446 367.881 11.614 367.771 10.9108C367.661 10.2076 367.187 9.69765 366.711 9.77118C366.236 9.84564 365.94 10.4762 366.05 11.1794Z" fill="#966259"/>
<path d="M369.949 14.2579L370.075 17.0234C370.075 17.0234 370.137 18.0981 371.26 18.2404C372.382 18.3825 373.41 17.5146 373.41 16.6442C373.41 16.5336 372.856 12.741 372.856 12.741L369.949 14.2579Z" fill="#966259"/>
<path d="M372.856 12.7417L369.949 14.258L369.994 15.242C370.519 15.2457 371.299 15.2039 371.924 14.8312C372.449 14.518 372.741 14.1197 372.976 13.5714C372.906 13.0864 372.856 12.7417 372.856 12.7417Z" fill="#6B4744"/>
<path d="M371.442 5.29282C371.442 5.29282 372.819 5.68626 373.643 7.07563C374.467 8.46499 374.965 12.4556 372.11 14.1586C369.253 15.8624 367.345 13.127 367.146 10.5821C366.909 7.5736 368.222 4.78105 371.442 5.29282Z" fill="#966259"/>
</svg>
