<svg width="1692" height="2081" viewBox="0 0 1692 2081" fill="none" xmlns="http://www.w3.org/2000/svg">
<g clip-path="url(#clip0_259_2406)">
<path opacity="0.43" d="M204.67 1446.37C145.95 1385.88 118.52 1300.63 111.98 1216.64C99.6501 1058.3 158.42 895.76 269.2 781.8C329.83 719.44 404.59 671.47 461.21 605.46C517.53 539.81 557.36 455.34 633.5 414.21C731.02 361.54 853.1 399.3 948.44 455.8C1043.79 512.3 1131.09 587.72 1238.46 615.3C1314.08 634.72 1400.13 630.91 1461.04 679.7C1556.73 756.34 1530.51 905.37 1563.62 1023.33C1594.76 1134.28 1685.15 1233.79 1668.9 1347.87C1656.37 1435.79 1579.92 1503.85 1495.93 1533.04C1411.94 1562.23 1320.72 1559.91 1231.83 1557.25C1030.92 1551.24 827.91 1539.62 628.17 1547.04C498.36 1551.87 294.94 1566.55 204.67 1446.36V1446.37Z" fill="#DEE4F2"/>
<path d="M496.29 1997.76C496.29 2009.2 492.79 2038.15 486.65 2080.08H1094.99C1087.06 2029.97 1080.17 1979.56 1074.18 1928.93C1068.24 1878.7 1049.18 1790.87 998.16 1638.53H582.56C582.56 1638.53 496.28 1904.86 496.28 1997.75L496.29 1997.76Z" fill="#84A0B7"/>
<path d="M824.89 1024.49C819 1020.27 813.19 1015.66 806.31 1013.41C799.89 1011.31 793 1011.41 786.25 1011.54C755.48 1012.1 724.72 1012.65 693.95 1013.21C697.11 1008.37 700.28 1003.54 703.44 998.7C676.43 999.61 647.99 1000.2 624.13 987.51C600.27 974.82 583.84 943.9 596.44 919.99C605.46 902.9 625.46 895.06 644.18 890.25C726.29 869.13 816.34 880.72 890.44 921.92C919.61 938.14 958.14 966.12 960.09 1003.14C961.91 1037.87 929.67 1048.81 901.76 1038.09C903.04 1046.09 907.39 1053.6 911.61 1060.52C880.98 1057.31 849.72 1042.31 824.9 1024.49H824.89Z" fill="#A05D45"/>
<path d="M1345.59 1556.41C1375.75 1522.42 1377.96 1475.14 1350.53 1450.8C1323.1 1426.46 1276.41 1434.29 1246.25 1468.28C1216.09 1502.27 1213.88 1549.56 1241.32 1573.89C1268.75 1598.23 1315.43 1590.41 1345.59 1556.41Z" fill="#DDE4E8"/>
<path d="M936.768 1193.27C966.926 1159.28 969.137 1112 941.705 1087.66C914.274 1063.32 867.588 1071.15 837.43 1105.14C807.271 1139.13 805.061 1186.42 832.492 1210.76C859.924 1235.09 906.61 1227.27 936.768 1193.27Z" fill="#DDE4E8"/>
<path d="M941.682 1087.67L832.476 1210.75L1244.12 1575.98L1353.33 1452.89L941.682 1087.67Z" fill="#DDE4E8"/>
<path d="M837.91 1154.01C802.16 1158.3 764.03 1153.28 730.9 1142.9C705.35 1134.89 681.09 1124.27 663.62 1110.56C646.15 1096.85 636.07 1079.79 640.27 1064.61C641.56 1059.94 644.35 1055.34 650.21 1052.38C674.34 1040.21 711.13 1045.59 736.83 1047.8C772.62 1050.88 807.45 1056.41 842.71 1062.84C859.38 1065.88 876.54 1070.58 889.09 1081.97C901.64 1093.36 907.98 1113.16 899.45 1127.8C893.36 1138.25 881.46 1143.78 869.9 1147.34C859.6 1150.52 848.87 1152.7 837.91 1154.02V1154.01Z" fill="#F4B683"/>
<path d="M675.39 1113.2H801.35V925.5H675.39V1113.2Z" fill="#F4B683"/>
<path d="M675.4 925.51H769.57C769.63 925.58 769.7 925.64 769.77 925.71C777.85 934.02 790.11 947.59 801.35 963.01V1049.98C799.64 1050.11 797.95 1050.18 796.3 1050.18C751.09 1050.16 707.55 1029.4 675.39 997.35V925.51H675.4Z" fill="#D56734"/>
<path d="M853.87 1758.03C849.63 1760.08 845.35 1762.01 841.01 1763.68C804.54 1777.77 763.26 1773.85 725.93 1762.21C707.26 1756.39 689.06 1748.68 669.78 1745.45C637.66 1740.07 604.66 1747.43 572.23 1744.36C545.05 1741.78 514.52 1726.88 510.99 1699.8C508.38 1679.72 521.85 1661.15 536.52 1647.19C551.19 1633.23 568.32 1620.69 576.82 1602.31C583.8 1587.2 584.05 1570.01 585.18 1553.4C587.31 1521.88 593.04 1490.61 602.22 1460.39C626.31 1381.11 635.7 1302.87 584.46 1230.11C556.08 1189.81 522.16 1142.8 543.03 1091.45C546.61 1082.63 551.51 1074.03 558.97 1067.35C577.92 1050.37 606.38 1049.84 629.76 1040.71C657.98 1029.69 651.66 1029.12 664.38 1051.91C670.41 1062.71 678.61 1072.84 687.24 1082.82C710.15 1109.33 741.02 1128.99 776.35 1134.24C794.92 1136.93 814.81 1136.53 831.21 1127.42C847.61 1118.31 862.98 1097.65 857.85 1079.6C859.3 1080.68 860.71 1081.81 862.14 1082.92C860.4 1075.06 859.1 1067.1 858.4 1059.03C877.2 1067.17 897.11 1072.56 917.34 1075C918.51 1075.14 919.71 1075.28 920.76 1075.84C923.4 1077.24 924.21 1080.67 924.82 1083.68C938.18 1149.9 982.55 1200.49 1024.21 1249.76C1053.92 1284.89 1082.44 1323.56 1092.12 1369.22C1097.21 1393.23 1095.89 1419.22 1087.44 1442.33C1078.7 1466.22 1057.23 1479.58 1048.49 1500.93C1037.39 1528.1 1030.99 1562.03 1032.57 1591.37C1034.41 1625.49 1061.86 1651 1064.8 1686.5C1067.22 1715.68 1051.59 1748.62 1023.15 1755.59C989.16 1763.93 957.06 1733.45 922.07 1733.13C897.57 1732.9 876.19 1747.23 853.84 1758.04L853.87 1758.03Z" fill="#EDF3F7"/>
<path d="M460.016 1572.47C473.847 1545.19 452.201 1506.41 411.669 1485.87C371.137 1465.32 327.067 1470.78 313.236 1498.07C299.405 1525.36 321.051 1564.13 361.583 1584.68C402.115 1605.22 446.185 1599.76 460.016 1572.47Z" fill="#CED9DD"/>
<path d="M666.013 1165.43C679.844 1138.15 658.199 1099.37 617.666 1078.83C577.134 1058.28 533.064 1063.74 519.233 1091.03C505.402 1118.32 527.048 1157.09 567.58 1177.64C608.112 1198.18 652.182 1192.72 666.013 1165.43Z" fill="#CED9DD"/>
<path d="M311.61 1500.56L458.381 1574.96L665.951 1165.46L519.18 1091.07L311.61 1500.56Z" fill="#CED9DD"/>
<path d="M776.23 1404.44L422.63 1614.23C384.78 1636.69 335.84 1622.9 315.28 1583.98C295.94 1547.37 309.02 1502.04 344.88 1481.34C449.23 1421.11 647.88 1303.28 690.07 1255.44L776.24 1404.43L776.23 1404.44Z" fill="#DDE4E8"/>
<path d="M1038.2 513.76C1066.31 547.11 1081.89 598.27 1086.85 651C1091.81 703.73 1086.96 758.27 1079.4 811.55C1075.71 837.58 1071.38 864.73 1076.22 889.57C1081.06 914.41 1098.76 935.35 1116.77 927.61C1108.14 946.75 1095.42 962.35 1080.89 971.6C1088.77 972.32 1096.96 969.58 1104.06 963.84C1099.78 985.64 1086.59 1004.17 1071.19 1010.02C1078.57 1009.7 1085.96 1008.83 1093.32 1007.4C1059.07 1048.81 1009.13 1060.99 969.98 1037.47C971.59 1045.47 973.2 1053.47 974.8 1061.47C960.13 1048.96 945.1 1036 935.06 1016.39C919.97 986.92 918.4 947.01 919.79 909.38C922.53 835.14 934.67 759.22 924.09 687.65C918.86 652.3 908.17 618.99 906.06 582.71C903.85 544.71 914.46 496.55 943.26 483.66C976.28 468.88 1013.63 484.61 1038.19 513.76H1038.2Z" fill="#BF7152"/>
<path d="M1102.36 969.37C1094.4 972.01 1086.41 974.31 1078.34 975.6C1053.16 979.63 1026.93 975.2 1006.45 956.31C991.28 942.32 979.92 921.12 964.09 908.57C951.08 898.26 935.96 894.64 920.57 893.76C920.3 898.97 919.98 904.18 919.78 909.37C918.39 947 919.96 986.91 935.06 1016.38C945.1 1035.99 960.13 1048.95 974.8 1061.46C973.19 1053.46 971.58 1045.46 969.98 1037.46C1009.13 1060.98 1059.08 1048.8 1093.32 1007.39C1085.96 1008.81 1078.56 1009.69 1071.19 1010.01C1085.22 1004.68 1097.07 988.64 1102.36 969.37Z" fill="#A05D45"/>
<path d="M1036.9 810.25C1021.42 762.23 972.67 809.39 972.67 809.39L939.88 907.89C1006.81 906.78 1052.38 858.28 1036.9 810.26V810.25Z" fill="#F4B683"/>
<path d="M971.28 833.06C971.28 833.06 997.04 802.67 1012.56 816.77C1028.08 830.87 1013.16 884.17 956.8 884.15L971.27 833.05L971.28 833.06Z" fill="#E38859"/>
<path d="M899.05 464.63C800.88 444.56 704.98 506.14 681.79 602.85L681.67 602.83L680.4 609.05L639.39 809.65L636.3 824.75L636.94 824.88C625.86 918.65 691.32 998.68 783.8 1028.3C843.28 1047.35 970.48 1033.82 990.98 933.56C993.29 922.26 994.66 910.36 995.13 898.11L999.36 898.98L1044.73 677.06L1044.61 677.04C1061.24 578.99 997.21 484.71 899.04 464.63H899.05Z" fill="#F4B683"/>
<path d="M1044.62 677.03C1054.76 617.26 1034.92 558.88 995.64 517.86C968.65 506.48 940.09 495.25 923.02 490.88C900.77 485.19 852.34 474.96 814.16 467.09C788.72 473.9 765.11 486.06 744.87 502.53C709.93 607.54 635.6 855.41 709.68 863.13C709.68 863.13 831.33 802.46 917.11 869.87C953.48 898.45 977.18 915.45 992.42 925.57C993.86 916.7 994.75 907.51 995.12 898.11L999.35 898.98L1044.72 677.06L1044.6 677.04L1044.62 677.03Z" fill="url(#paint0_linear_259_2406)"/>
<path d="M814.4 795.19C812.18 806.06 803.26 813.42 794.48 811.62C785.7 809.83 780.39 799.56 782.61 788.69C784.83 777.82 793.75 770.46 802.53 772.26C811.31 774.05 816.62 784.32 814.4 795.19Z" fill="#3A3944"/>
<path d="M792.91 777.61C791.02 778.32 788.86 777.86 787.04 776.8C785.15 775.78 783.87 773.95 783.09 772.11C782.34 770.22 782.13 768.28 782.35 766.41C782.61 764.55 783.13 762.78 784.23 761.18C785.67 764.77 786.18 767.86 787.35 770.5C788.39 773.16 789.72 775.33 792.92 777.61H792.91Z" fill="#3A3944"/>
<path d="M948.88 822.68C946.66 833.55 951.97 843.82 960.75 845.61C969.53 847.4 978.44 840.05 980.67 829.18C982.89 818.31 977.58 808.04 968.8 806.25C960.02 804.46 951.11 811.81 948.88 822.68Z" fill="#3A3944"/>
<path d="M975.55 814.95C977.01 816.34 979.18 816.77 981.26 816.51C983.4 816.31 985.29 815.13 986.74 813.75C988.17 812.31 989.13 810.6 989.66 808.8C990.15 806.99 990.36 805.16 989.98 803.25C987.25 805.98 985.56 808.63 983.46 810.6C981.45 812.64 979.38 814.12 975.55 814.95V814.95Z" fill="#3A3944"/>
<path d="M879.68 831.27C877.3 839.07 875.69 846.93 874.3 854.81C872.93 862.69 871.85 870.59 870.97 878.5L870.34 884.43L869.77 890.35L869.64 891.83L869.44 893.11C869.29 893.96 869.25 894.84 868.97 895.65C868.72 896.47 868.6 897.35 868.23 898.13L867.77 899.35C867.69 899.55 867.62 899.76 867.53 899.96L867.22 900.54C864.15 906.9 858.22 912.22 851.19 916.22C853.23 916.07 855.25 915.59 857.23 914.95C858.24 914.67 859.18 914.24 860.17 913.86C861.11 913.4 862.09 912.98 863 912.44C866.69 910.36 870.1 907.45 872.64 903.74C873.9 901.89 874.97 899.86 875.71 897.72C876.17 896.67 876.4 895.56 876.66 894.45L877.04 892.8L877.29 891.31C877.63 889.32 877.89 887.33 878.18 885.34L878.91 879.37C879.79 871.41 880.33 863.42 880.53 855.41C880.7 847.39 880.6 839.36 879.68 831.25V831.27Z" fill="#D56734"/>
<path d="M789.16 956.81C793.53 955.42 797.9 954.42 802.27 953.71C806.63 952.98 810.99 952.6 815.31 952.54C823.95 952.42 832.45 953.68 840.48 956.43C841.5 956.71 842.47 957.16 843.47 957.52L844.96 958.09L846.42 958.75C847.39 959.19 848.39 959.57 849.34 960.06C850.29 960.55 851.24 961.05 852.2 961.52C855.96 963.58 859.67 965.81 863.19 968.4C870.32 973.47 876.93 979.46 883.61 985.76C879.62 977.48 874.02 969.96 867.19 963.54C863.82 960.27 859.98 957.48 855.98 954.94C851.94 952.44 847.57 950.45 843.05 948.86C833.98 945.75 824.15 944.92 814.79 946.29C810.11 946.99 805.53 948.18 801.21 949.94C799.04 950.8 796.94 951.81 794.92 952.95C792.9 954.09 790.94 955.32 789.17 956.81H789.16Z" fill="#D56734"/>
<path d="M952.14 730.98C948.5 744.32 954.33 759.91 965.85 769.05C971.71 773.39 978.41 776.52 985.37 777.55C988.79 778.3 992.33 778.08 995.71 778.19C999.14 777.79 1002.52 777.27 1005.8 776.33C1002.6 774.85 999.48 773.94 996.45 772.88C993.5 771.56 990.5 770.69 987.76 769.37C982.17 766.93 977.14 764 972.64 760.51C968.06 757.09 964.37 752.69 960.93 747.82C957.57 742.86 954.77 737.3 952.13 730.99L952.14 730.98Z" fill="#A05D45"/>
<path d="M777 730.03C786.39 740.17 802.71 743.47 816.56 738.53C823.34 735.85 829.54 731.82 834.1 726.46C836.55 723.96 838.23 720.84 840.11 718.02C841.59 714.89 842.93 711.75 843.87 708.47C840.92 710.4 838.5 712.57 836 714.58C833.32 716.38 831 718.47 828.42 720.1C823.39 723.55 818.24 726.27 812.91 728.24C807.58 730.31 801.9 731.12 795.95 731.46C789.96 731.69 783.76 731.13 777.01 730.03H777Z" fill="#A05D45"/>
<path d="M699.02 461.81C656.81 483.55 622.97 526.57 600.56 574.79C578.15 623.01 566.17 676.4 557.64 729.53C553.47 755.49 549.66 782.73 536.29 804.57C522.92 826.41 496.36 840.04 478.61 826.39C482.19 847.55 491.49 866.79 504.84 880.65C495.76 878.57 487.44 873.1 481.31 865.17C479.15 887.33 488.04 909.52 503.46 920.45C495.28 917.56 487.26 914.14 479.45 910.21C504.67 961.46 556.86 990.51 608.33 981.95C603.97 988.97 599.61 995.98 595.25 1003C615.72 996.29 636.74 989.28 654.27 974.22C680.63 951.59 695.14 914.32 705.6 878.18C726.24 806.87 712.47 731.88 747.21 667.78C764.37 636.11 811.39 607.09 825.36 573.46C839.98 538.23 843.44 488.87 815.23 466.56C782.88 440.98 735.92 442.79 699.03 461.79L699.02 461.81Z" fill="#BF7152"/>
<path d="M481.44 871.03C489.53 876.33 497.77 881.3 506.42 885.35C533.4 898 564.27 902.99 593.3 892.28C614.8 884.34 634.33 868.24 656.11 861.9C674.01 856.69 692.14 858.57 709.7 863.13C708.34 868.16 707.04 873.21 705.6 878.2C695.14 914.35 680.63 951.61 654.27 974.25C636.74 989.31 615.72 996.32 595.25 1003.03C599.61 996.01 603.97 989 608.33 981.98C556.86 990.54 504.67 961.49 479.45 910.24C487.26 914.17 495.28 917.59 503.47 920.48C489.42 910.51 481.24 891.15 481.46 871.04L481.44 871.03Z" fill="#A05D45"/>
<path d="M634.05 714.59C667.14 676.5 693.46 739 693.46 739L684.96 842.46C623.83 815.17 600.96 752.67 634.05 714.58V714.59Z" fill="#F4B683"/>
<path d="M685.45 761.33C685.45 761.33 673.68 723.27 653.87 730.15C634.06 737.03 626.87 791.91 678.7 814.01L685.44 761.33H685.45Z" fill="#E38859"/>
<path d="M977.26 624.11C975.17 623.57 973.08 623.02 970.99 622.48C987.12 629.56 1001.7 640.17 1013.39 653.35C1011.93 652.83 1010.48 652.3 1009.02 651.78C1024.32 668.81 1039.61 685.85 1054.91 702.88C1055.94 704.03 1057.14 705.26 1058.68 705.36C1061.52 705.54 1062.94 702.04 1063.42 699.24C1070.91 655.27 1053.41 607.89 1019.13 579.36C1004.42 567.11 984.94 557.97 966.41 562.8C955.19 565.72 923.99 587.8 926.97 602.24C927.85 606.49 969.13 622.02 977.25 624.13L977.26 624.11Z" fill="#A05D45"/>
<path d="M1025.33 767.44C1030.82 733.51 1031.34 698.83 1026.88 665.14C1021.9 627.49 1009.52 586.28 968.131 587.54C949.371 588.11 931.301 597.67 916.141 610.4C921.121 606.22 925.471 589.62 929.431 583.31C935.901 573.01 943.661 563.32 952.481 555.33C966.061 543.03 982.911 539.22 1000.21 540.64C1040.09 543.91 1069.54 585.92 1079.17 625.26C1087.47 659.17 1085.29 695.62 1079.06 730.66C1062.09 826.13 1015.93 915.05 1004.68 1011.29C1002.22 1032.35 1001.54 1054.19 1007.9 1073.87C1014.27 1093.55 1028.89 1110.79 1047.83 1114.19C1019.98 1117.86 991.351 1105.46 974.021 1082.23C944.591 1042.78 956.901 988.36 971.361 943.53C990.181 885.16 1015.47 828.52 1025.34 767.46L1025.33 767.44Z" fill="#BF7152"/>
<path d="M870.81 575.55C884.7 583.04 897.02 593.45 906.73 605.89C888 596.87 866.42 593.88 845.95 597.49C852.36 599.34 858.5 602.1 864.14 605.66C846.01 605.2 827.81 608.27 810.83 614.64C815.83 616.6 820.82 618.57 825.82 620.53C802.09 626.95 779.97 639.23 761.97 655.97C763.94 625.96 770.65 595.79 785.71 569.76C800.77 543.73 824.83 522.14 853.79 514.04C862.16 511.7 870.96 510.49 879.58 511.61C900.01 514.27 917.11 530.09 925.4 548.96C929.88 559.16 941.8 604.53 926.19 606.57C922.6 607.04 904.45 589.77 900 587.27C890.77 582.08 879.84 580.43 870.81 575.56V575.55Z" fill="#A05D45"/>
<path d="M758.05 638C740.74 722.13 723.42 806.27 706.11 890.4C700.52 917.56 694.78 945.15 682.22 969.72C669.66 994.29 649.08 1015.86 623.56 1022.26C598.04 1028.66 568.1 1016.1 559.24 990.33C577.73 999.17 600.73 991.13 615.86 976.1C630.98 961.07 639.73 940.36 647.04 919.89C666.82 864.5 678.99 806.58 689.09 748.56C699.09 691.13 707.61 631.88 735.09 580.84C743.99 564.31 759.17 546.87 776.46 550.74C779.81 569.04 778.12 588.48 771.64 606.07L758.06 638H758.05Z" fill="#BF7152"/>
<path d="M983.36 568.25C1004.05 569.22 1028.78 578.32 1042.78 563.05C1047.89 557.48 1050.01 549.62 1049.77 542.07C1048.89 514.56 1021.37 496.57 996.75 484.25C950.87 461.28 902.94 440.62 852.09 433.79C801.24 426.96 746.65 435.26 705.42 465.81C695.02 473.51 685.33 482.89 680.4 494.85C675.46 506.81 676.19 521.76 684.85 531.38C691.67 538.95 702.16 542.14 712.3 543.1C759.04 547.54 806.68 512.31 850.48 529.23C882.21 541.48 887.59 575.41 912.63 592.24C927.74 602.4 928.54 589.18 943.12 579.58C954.93 571.81 969.19 567.59 983.35 568.25H983.36Z" fill="#BF7152"/>
<path d="M911.78 552.72C910.21 551.01 908.38 548.84 909.17 546.66C910.41 543.24 915.42 544.65 919.06 544.54C926.07 544.31 930.19 535.57 928.4 528.78C926.61 521.99 921.04 516.98 915.74 512.38C924.24 510.41 927.02 498.65 923.03 490.9C919.04 483.14 910.9 478.59 903.2 474.49C905.05 471.56 908.65 469.82 912.1 470.2C914.77 468.22 911.76 464.18 908.93 462.43C898.49 456 887.8 449.96 876.9 444.34C879.38 440.15 885.52 440.64 890.24 441.84C917.47 448.8 943.14 461.78 964.9 479.56C953.34 478.75 941.83 477.11 930.51 474.63C939.52 480.64 948.54 486.64 957.55 492.65C949.42 493.53 941.62 497.19 935.75 502.89C943.43 508.02 951.38 512.75 959.55 517.06C954.41 519.06 948.94 521.33 945.96 525.97C942.98 530.61 944.25 538.27 949.58 539.69C943.71 539.03 938.43 543.92 936.31 549.44C931.46 562.07 934.73 576.32 929.09 589.04C921.54 578.03 921.88 563.68 911.8 552.74L911.78 552.72Z" fill="#A05D45"/>
<path d="M803.061 1300.22C803.061 1300.22 921.731 1256.79 1001.34 1270.24C1080.95 1283.69 1248.9 1343.25 1248.9 1343.25L1201.2 1416.7L975.481 1422.99L803.061 1300.22V1300.22Z" fill="#41543B"/>
<path d="M803.06 1300.22L755.021 1499.93L1014.02 1555.5L1211.1 1541.29L1248.9 1343.26L1041.66 1354.51L803.06 1300.22Z" fill="#5B7254"/>
<path d="M1126.63 1520.21C1124.58 1513.42 1128.46 1506.19 1135.24 1504.14L1215.79 1479.82C1218.56 1478.98 1221.41 1479.13 1223.95 1480.07C1227.62 1481.42 1230.65 1484.42 1231.86 1488.44C1233.91 1495.23 1230.03 1502.46 1223.25 1504.51L1142.7 1528.83C1138.56 1530.08 1134.25 1529.13 1131.06 1526.65C1129.02 1525.07 1127.43 1522.86 1126.63 1520.22V1520.21Z" fill="#F4B683"/>
<path d="M1095.26 1488.55C1093.93 1481.58 1099.44 1474.63 1107.49 1473.1L1203.08 1454.9C1206.37 1454.27 1209.6 1454.64 1212.35 1455.78C1216.34 1457.42 1219.35 1460.66 1220.13 1464.78C1221.46 1471.75 1215.95 1478.7 1207.9 1480.23L1112.31 1498.43C1107.4 1499.37 1102.62 1498.08 1099.35 1495.35C1097.26 1493.61 1095.77 1491.27 1095.26 1488.56V1488.55Z" fill="#F4B683"/>
<path d="M1073.8 1459.21C1072.47 1452.24 1077.98 1445.29 1086.04 1443.76L1181.63 1425.56C1184.92 1424.93 1188.15 1425.3 1190.9 1426.44C1194.89 1428.08 1197.9 1431.32 1198.68 1435.44C1200.01 1442.41 1194.5 1449.36 1186.44 1450.89L1090.85 1469.09C1085.94 1470.03 1081.16 1468.74 1077.89 1466.01C1075.8 1464.27 1074.31 1461.93 1073.8 1459.22V1459.21Z" fill="#F4B683"/>
<path d="M1084.27 1413.64C1084.01 1406.55 1091.53 1400.47 1100.98 1400.13L1213.12 1396.04C1216.98 1395.9 1220.59 1396.74 1223.52 1398.26C1227.77 1400.46 1230.61 1404.11 1230.77 1408.3C1231.03 1415.39 1223.51 1421.47 1214.06 1421.81L1101.92 1425.9C1096.16 1426.11 1090.95 1424.14 1087.71 1420.96C1085.64 1418.93 1084.37 1416.4 1084.27 1413.64Z" fill="#F4B683"/>
<path d="M1305.42 1442.17L1296.28 1390.91C1295.43 1386.15 1290.85 1382.96 1286.09 1383.8L1182.36 1402.29C1177.6 1403.14 1174.41 1407.72 1175.25 1412.48L1189.61 1493.05C1190.46 1497.81 1200.86 1509.5 1205.62 1508.66L1280.04 1495.39C1288.56 1493.87 1306.23 1480.1 1311.73 1474.18C1319.71 1465.6 1307.61 1454.53 1305.41 1442.17H1305.42Z" fill="#F4B683"/>
<path d="M1306.07 1449.32L1296.69 1396.7C1294.45 1384.12 1286.03 1374.12 1275.11 1369.26C1268.56 1366.34 1261.12 1365.28 1253.57 1366.63L1246.43 1367.9C1225.18 1371.69 1210.9 1392.17 1214.68 1413.42L1223.7 1464C1224.55 1468.76 1229.13 1471.95 1233.89 1471.11L1298.97 1459.51C1303.73 1458.66 1306.92 1454.08 1306.08 1449.32H1306.07Z" fill="#F4B683"/>
<path d="M794.941 1499.23C800.631 1495 801.831 1486.88 797.601 1481.19L747.411 1413.66C745.681 1411.34 743.311 1409.76 740.711 1409C736.951 1407.9 732.741 1408.5 729.371 1411C723.681 1415.23 722.481 1423.35 726.711 1429.04L776.901 1496.57C779.481 1500.04 783.511 1501.84 787.551 1501.76C790.131 1501.71 792.721 1500.88 794.941 1499.23Z" fill="#F4B683"/>
<path d="M838.99 1492.5C844.21 1487.7 843.93 1478.83 838.37 1472.8L772.45 1401.22C770.18 1398.76 767.37 1397.13 764.48 1396.4C760.3 1395.34 755.95 1396.15 752.87 1398.99C747.65 1403.79 747.93 1412.66 753.49 1418.69L819.41 1490.27C822.8 1493.95 827.4 1495.76 831.66 1495.52C834.38 1495.37 836.96 1494.38 839 1492.5H838.99Z" fill="#F4B683"/>
<path d="M873.71 1481.73C878.93 1476.93 878.65 1468.06 873.09 1462.03L807.17 1390.45C804.9 1387.99 802.09 1386.36 799.2 1385.63C795.02 1384.57 790.67 1385.38 787.59 1388.22C782.37 1393.02 782.65 1401.89 788.21 1407.92L854.13 1479.5C857.52 1483.18 862.12 1484.99 866.38 1484.75C869.1 1484.6 871.68 1483.61 873.72 1481.73H873.71Z" fill="#F4B683"/>
<path d="M892.461 1438.9C896.891 1433.36 894.471 1424 887.091 1418.09L799.481 1347.97C796.461 1345.56 793.071 1344.08 789.801 1343.55C785.071 1342.79 780.621 1344.02 778.001 1347.29C773.571 1352.83 775.991 1362.19 783.371 1368.1L870.98 1438.22C875.48 1441.82 880.841 1443.34 885.331 1442.72C888.201 1442.32 890.731 1441.05 892.461 1438.89V1438.9Z" fill="#F4B683"/>
<path d="M697.87 1330.02L735.76 1294.3C739.27 1290.99 744.86 1291.15 748.18 1294.67L820.46 1371.33C823.77 1374.84 823.61 1380.43 820.09 1383.75L760.54 1439.89C757.03 1443.2 741.7 1446.4 738.38 1442.88L686.52 1387.88C680.58 1381.58 674.6 1359.99 673.71 1351.96C672.42 1340.31 688.73 1338.63 697.86 1330.02H697.87Z" fill="#F4B683"/>
<path d="M693.09 1335.37L731.98 1298.71C741.28 1289.94 754 1286.93 765.66 1289.53C772.66 1291.09 779.27 1294.68 784.53 1300.26L789.51 1305.54C804.32 1321.24 803.58 1346.21 787.88 1361.01L750.5 1396.26C746.99 1399.57 741.4 1399.41 738.08 1395.89L692.73 1347.79C689.42 1344.28 689.58 1338.69 693.1 1335.37H693.09Z" fill="#F4B683"/>
<path d="M587.79 561.09C583.33 561.09 579.71 557.47 579.71 553.01V207.03C579.71 202.57 583.33 198.95 587.79 198.95C592.25 198.95 595.87 202.57 595.87 207.03V553.01C595.87 557.47 592.25 561.09 587.79 561.09Z" fill="#636268"/>
<path d="M637.21 513.29C632.75 513.29 629.13 509.67 629.13 505.21V159.23C629.13 154.77 632.75 151.15 637.21 151.15C641.67 151.15 645.29 154.77 645.29 159.23V505.21C645.29 509.67 641.67 513.29 637.21 513.29Z" fill="#636268"/>
<path d="M698.04 568.33C693.58 568.33 689.96 564.71 689.96 560.25V214.27C689.96 209.81 693.58 206.19 698.04 206.19C702.5 206.19 706.12 209.81 706.12 214.27V560.25C706.12 564.71 702.5 568.33 698.04 568.33Z" fill="#636268"/>
<path d="M1033.06 409.94C1028.6 409.94 1024.98 406.32 1024.98 401.86V55.88C1024.98 51.42 1028.6 47.8 1033.06 47.8C1037.52 47.8 1041.14 51.42 1041.14 55.88V401.87C1041.14 406.33 1037.52 409.95 1033.06 409.95V409.94Z" fill="#636268"/>
<path d="M1082.49 362.14C1078.03 362.14 1074.41 358.52 1074.41 354.06V8.08C1074.41 3.62 1078.03 0 1082.49 0C1086.95 0 1090.57 3.62 1090.57 8.08V354.06C1090.57 358.52 1086.95 362.14 1082.49 362.14Z" fill="#636268"/>
<path d="M1143.32 417.18C1138.86 417.18 1135.24 413.56 1135.24 409.1V63.12C1135.24 58.66 1138.86 55.04 1143.32 55.04C1147.78 55.04 1151.4 58.66 1151.4 63.12V409.1C1151.4 413.56 1147.78 417.18 1143.32 417.18Z" fill="#636268"/>
<path d="M1586.9 993.364L1303.28 1017.58L1314.93 1154.05L1598.56 1129.84L1586.9 993.364Z" fill="#658667"/>
<path d="M1578.73 1003.69L1313.08 1026.37L1323.1 1143.75L1588.75 1121.07L1578.73 1003.69Z" fill="#83B286"/>
<path d="M1547.67 998.27C1549.52 1019.94 1568.59 1036.02 1590.26 1034.17C1590.28 1034.17 1590.31 1034.17 1590.33 1034.17L1586.86 993.45L1547.62 996.8C1547.64 997.3 1547.62 997.78 1547.67 998.28V998.27Z" fill="#658667"/>
<path d="M1354.47 1149.12C1352.62 1127.45 1333.55 1111.37 1311.88 1113.22C1311.86 1113.22 1311.83 1113.22 1311.81 1113.22L1315.28 1153.94L1354.52 1150.59C1354.5 1150.1 1354.52 1149.61 1354.47 1149.11V1149.12Z" fill="#658667"/>
<path d="M1342.63 1015.34C1344.48 1037.01 1328.41 1056.08 1306.73 1057.93C1306.71 1057.93 1306.68 1057.93 1306.66 1057.93L1303.19 1017.21L1342.43 1013.86C1342.49 1014.35 1342.59 1014.83 1342.63 1015.33V1015.34Z" fill="#658667"/>
<path d="M1559.05 1131.66C1557.2 1109.99 1573.27 1090.92 1594.95 1089.07C1594.97 1089.07 1595 1089.07 1595.02 1089.07L1598.49 1129.79L1559.25 1133.14C1559.19 1132.65 1559.09 1132.17 1559.05 1131.67V1131.66Z" fill="#658667"/>
<path d="M1492.29 1070.32C1494.25 1093.24 1477.25 1113.4 1454.34 1115.35C1431.43 1117.31 1411.26 1100.31 1409.31 1077.4C1407.35 1054.48 1424.35 1034.32 1447.26 1032.37C1470.18 1030.41 1490.34 1047.41 1492.29 1070.32Z" fill="#658667"/>
<path d="M1465.43 1089.71C1463.07 1092.59 1459.55 1094.5 1454.87 1095.45L1455.44 1102.13L1448.76 1102.7L1448.2 1096.09C1445.32 1096.15 1442.51 1095.93 1439.77 1095.44C1437.03 1094.94 1434.55 1094.28 1432.33 1093.47L1434.63 1083.46C1440.62 1085.56 1445.61 1086.44 1449.61 1086.09C1453.7 1085.74 1455.63 1084.18 1455.39 1081.41C1455.3 1080.41 1454.98 1079.66 1454.41 1079.16C1453.84 1078.66 1453.05 1078.28 1452.05 1078.02C1451.04 1077.76 1449.5 1077.47 1447.41 1077.15C1443.93 1076.62 1441.12 1075.98 1438.97 1075.23C1436.82 1074.48 1435.05 1073.24 1433.64 1071.53C1432.24 1069.82 1431.4 1067.42 1431.14 1064.33C1430.77 1059.97 1431.7 1056.43 1433.94 1053.73C1436.18 1051.02 1439.57 1049.18 1444.11 1048.2L1443.64 1042.75L1450.32 1042.18L1450.77 1047.43C1455.38 1047.31 1459.75 1048.04 1463.86 1049.61L1461.21 1058.83C1459.46 1058.16 1457.51 1057.68 1455.36 1057.41C1453.21 1057.14 1451.27 1057.07 1449.54 1057.22C1447.72 1057.38 1446.33 1057.78 1445.35 1058.43C1444.38 1059.09 1443.94 1060.03 1444.05 1061.25C1444.13 1062.16 1444.5 1062.86 1445.16 1063.35C1445.82 1063.84 1446.64 1064.22 1447.63 1064.48C1448.61 1064.74 1450.34 1065.11 1452.8 1065.58C1456.47 1066.27 1459.33 1067.03 1461.37 1067.83C1463.41 1068.64 1465.02 1069.85 1466.21 1071.47C1467.4 1073.08 1468.12 1075.37 1468.37 1078.32C1468.77 1083.04 1467.79 1086.85 1465.43 1089.72V1089.71Z" fill="#9DBB9F"/>
<path d="M1575.85 1072.08C1575.85 1072.08 1632.53 923.48 1676.96 963.31C1721.39 1003.14 1627.94 1046.03 1627.94 1046.03C1627.94 1046.03 1683.09 1016.92 1690.75 1044.5C1698.41 1072.07 1643.26 1084.33 1632.54 1084.33C1632.54 1084.33 1680.03 1073.61 1660.11 1102.71C1640.19 1131.81 1581.98 1087.39 1575.85 1072.07V1072.08Z" fill="white"/>
<path d="M1322.28 1096.59C1322.28 1096.59 1265.6 947.99 1221.17 987.82C1176.74 1027.65 1270.19 1070.54 1270.19 1070.54C1270.19 1070.54 1215.04 1041.43 1207.38 1069.01C1199.72 1096.58 1254.87 1108.84 1265.59 1108.84C1265.59 1108.84 1218.1 1098.12 1238.02 1127.22C1257.93 1156.33 1316.15 1111.9 1322.28 1096.58V1096.59Z" fill="white"/>
<path d="M360.009 853.037L117.635 703.752L45.8033 820.376L288.178 969.661L360.009 853.037Z" fill="#658667"/>
<path d="M347.305 856.464L120.291 716.64L58.5072 816.949L285.521 956.773L347.305 856.464Z" fill="#83B286"/>
<path d="M325.62 833.6C314.21 852.12 319.98 876.38 338.5 887.79C338.52 887.8 338.54 887.81 338.56 887.82L359.99 853.03L326.46 832.38C326.18 832.79 325.88 833.18 325.62 833.6V833.6Z" fill="#658667"/>
<path d="M80.5897 839.91C91.9997 821.39 86.2297 797.13 67.7097 785.72C67.6897 785.71 67.6697 785.7 67.6497 785.69L46.2197 820.48L79.7497 841.13C80.0297 840.72 80.3297 840.33 80.5897 839.91Z" fill="#658667"/>
<path d="M150.66 725.34C139.25 743.86 114.99 749.63 96.4697 738.22C96.4497 738.21 96.4297 738.19 96.4097 738.18L117.84 703.39L151.37 724.04C151.13 724.47 150.92 724.91 150.66 725.34Z" fill="#658667"/>
<path d="M255.41 947.59C266.82 929.07 291.08 923.3 309.6 934.71C309.62 934.72 309.64 934.74 309.66 934.75L288.23 969.54L254.7 948.89C254.94 948.46 255.15 948.02 255.41 947.59V947.59Z" fill="#658667"/>
<path d="M238.25 858.57C226.19 878.15 200.54 884.25 180.95 872.19C161.37 860.13 155.27 834.48 167.33 814.89C179.39 795.31 205.04 789.21 224.63 801.27C244.21 813.33 250.31 838.98 238.25 858.56V858.57Z" fill="#658667"/>
<path d="M205.12 858.17C201.51 859.08 197.54 858.52 193.22 856.5L189.7 862.21L183.99 858.69L187.47 853.04C185.12 851.38 182.99 849.53 181.08 847.5C179.17 845.47 177.57 843.46 176.27 841.48L184.08 834.8C187.65 840.05 191.14 843.73 194.55 845.83C198.05 847.98 200.52 847.87 201.98 845.51C202.51 844.66 202.69 843.86 202.53 843.12C202.37 842.38 201.96 841.61 201.31 840.8C200.65 839.99 199.59 838.84 198.1 837.34C195.62 834.85 193.74 832.66 192.46 830.78C191.18 828.9 190.49 826.85 190.38 824.64C190.27 822.43 191.03 820.01 192.65 817.37C194.95 813.64 197.8 811.36 201.21 810.51C204.62 809.67 208.44 810.2 212.67 812.11L215.54 807.45L221.25 810.97L218.49 815.45C222.27 818.1 225.34 821.28 227.72 824.99L220.11 830.82C219.1 829.24 217.82 827.7 216.25 826.2C214.68 824.7 213.16 823.5 211.69 822.59C210.14 821.63 208.77 821.13 207.6 821.08C206.43 821.03 205.52 821.53 204.87 822.57C204.39 823.35 204.27 824.13 204.51 824.92C204.75 825.71 205.18 826.5 205.82 827.29C206.46 828.08 207.62 829.4 209.32 831.25C211.86 833.99 213.71 836.3 214.86 838.16C216.01 840.02 216.59 841.96 216.59 843.96C216.59 845.97 215.81 848.23 214.25 850.75C211.76 854.79 208.72 857.26 205.1 858.17H205.12Z" fill="#9DBB9F"/>
<path d="M304.36 909.7C304.36 909.7 438.32 823.99 450.34 882.43C462.35 940.87 361.72 919.76 361.72 919.76C361.72 919.76 423.36 929.18 413.11 955.9C402.86 982.62 351.24 959.66 342.62 953.28C342.62 953.28 387.17 972.91 353.85 984.46C320.53 996.01 300.17 925.67 304.36 909.71V909.7Z" fill="white"/>
<path d="M85.9698 778.54C85.9698 778.54 128.82 625.38 69.4098 630.96C10.0098 636.54 59.5998 726.62 59.5998 726.62C59.5998 726.62 32.5898 670.41 10.0298 688.02C-12.5302 705.63 24.4998 748.29 33.1198 754.67C33.1198 754.67 1.3298 717.8 0.0198025 753.04C-1.2902 788.28 71.9298 787.21 85.9698 778.54V778.54Z" fill="white"/>
</g>
<defs>
<linearGradient id="paint0_linear_259_2406" x1="886.99" y1="576.99" x2="833.38" y2="880.31" gradientUnits="userSpaceOnUse">
<stop stop-color="#978EAD"/>
<stop offset="1" stop-color="#F4B683"/>
</linearGradient>
<clipPath id="clip0_259_2406">
<rect width="1691.47" height="2080.08" fill="white"/>
</clipPath>
</defs>
</svg>
