<svg width="196" height="173" viewBox="0 0 196 173" fill="none" xmlns="http://www.w3.org/2000/svg">
<g clip-path="url(#clip0_263_2510)">
<path d="M194.78 114.5C195.32 118.91 195.09 123.25 193.34 127.42C190.46 134.29 183.99 138.95 177.46 142.54C153.66 155.64 132.77 174.22 103.47 171.87C82.3198 170.18 77.0298 157.25 57.4398 152.51C37.8498 147.77 20.8598 132.92 7.41978 105.97C7.41978 105.97 -1.67022 79.96 11.9598 68.23C25.5898 56.5 31.5198 39.78 32.6998 31.74C33.8898 23.7 42.5398 -14.01 78.7198 5.56999C90.4598 11.92 103.5 17.84 117.14 17.45C131.66 17.03 145.01 12.68 159.71 16.85C175.76 21.4 190.19 38 190.45 55.24C190.53 60.91 188.95 66.46 188.2 72.09C187.35 78.54 187.62 85.13 189 91.49C190.65 99.1 193.85 106.92 194.78 114.51V114.5Z" fill="#EDEDED"/>
<path d="M12.99 84.02C20.1642 84.02 25.98 78.2042 25.98 71.03C25.98 63.8558 20.1642 58.04 12.99 58.04C5.81582 58.04 0 63.8558 0 71.03C0 78.2042 5.81582 84.02 12.99 84.02Z" fill="#B2B2B2"/>
<path d="M18.0902 63.33C14.0002 67.73 10.6202 72.75 6.87024 77.43C6.10024 78.39 7.75024 79.57 8.44024 78.54C11.7602 73.61 15.7302 69.1699 19.1802 64.3399C19.6602 63.6699 18.6802 62.7 18.0802 63.33H18.0902Z" fill="white"/>
<path d="M7.17019 63.9199C6.07019 64.4999 5.35019 65.6599 5.44019 66.9199C5.50019 67.7599 5.88019 68.4599 6.50019 68.8399C7.31019 69.6199 8.72019 70.3499 9.86019 69.9499C10.9302 69.5699 11.7602 68.4099 11.9502 67.3199C12.4002 64.6999 9.51019 62.6799 7.18019 63.9199H7.17019ZM9.81019 67.5499C9.56019 68.0799 9.18019 68.3299 8.62019 68.1899C8.52019 68.1599 8.40019 68.1199 8.27019 68.0599C8.25019 68.0199 8.22019 67.9799 8.19019 67.9499C7.81019 67.5999 7.39019 67.1899 7.48019 66.6399C7.56019 66.1799 7.93019 65.7899 8.38019 65.6699C9.46019 65.3799 10.2502 66.5999 9.81019 67.5399V67.5499Z" fill="white"/>
<path d="M15.7903 72.84C14.6903 73.42 13.9703 74.58 14.0603 75.84C14.1203 76.68 14.5003 77.38 15.1203 77.76C15.9303 78.54 17.3403 79.27 18.4803 78.87C19.5503 78.49 20.3803 77.33 20.5703 76.24C21.0203 73.62 18.1303 71.6 15.8003 72.84H15.7903ZM18.4303 76.47C18.1803 77 17.8003 77.25 17.2403 77.11C17.1403 77.08 17.0203 77.04 16.8903 76.98C16.8703 76.94 16.8403 76.9 16.8103 76.87C16.4303 76.52 16.0103 76.11 16.1003 75.56C16.1803 75.1 16.5503 74.71 17.0003 74.59C18.0803 74.3 18.8703 75.52 18.4303 76.46V76.47Z" fill="white"/>
<path d="M172.57 146.83C181.163 146.83 188.13 139.864 188.13 131.27C188.13 122.676 181.163 115.71 172.57 115.71C163.976 115.71 157.01 122.676 157.01 131.27C157.01 139.864 163.976 146.83 172.57 146.83Z" fill="#B2B2B2"/>
<path d="M178.68 122.04C173.78 127.31 169.73 133.32 165.24 138.93C164.32 140.09 166.29 141.49 167.12 140.26C171.1 134.36 175.86 129.03 179.99 123.24C180.57 122.43 179.39 121.27 178.67 122.03L178.68 122.04Z" fill="white"/>
<path d="M165.6 122.75C164.29 123.45 163.42 124.84 163.53 126.34C163.6 127.34 164.06 128.19 164.8 128.64C165.77 129.58 167.46 130.45 168.82 129.97C170.1 129.51 171.1 128.12 171.32 126.82C171.86 123.68 168.4 121.26 165.6 122.75V122.75ZM168.77 127.09C168.48 127.72 168.01 128.02 167.34 127.85C167.22 127.82 167.07 127.76 166.92 127.7C166.89 127.66 166.87 127.61 166.83 127.57C166.38 127.15 165.87 126.66 165.98 126C166.07 125.45 166.52 124.99 167.06 124.84C168.35 124.49 169.3 125.96 168.77 127.08V127.09Z" fill="white"/>
<path d="M175.92 133.44C174.61 134.14 173.74 135.53 173.85 137.03C173.92 138.03 174.38 138.88 175.12 139.33C176.09 140.27 177.78 141.14 179.14 140.66C180.42 140.2 181.42 138.81 181.64 137.51C182.18 134.37 178.72 131.95 175.92 133.44V133.44ZM179.09 137.78C178.8 138.41 178.33 138.71 177.66 138.54C177.54 138.51 177.39 138.45 177.24 138.39C177.21 138.35 177.19 138.3 177.15 138.26C176.7 137.84 176.19 137.35 176.3 136.69C176.39 136.14 176.84 135.68 177.38 135.53C178.67 135.18 179.62 136.65 179.09 137.77V137.78Z" fill="white"/>
<path d="M138.87 124.02C139.29 123.55 139.68 123.08 139.99 122.58C140.58 121.64 140.87 120.45 140.49 119.41C139.99 118.02 138.42 117.25 136.94 117.22C135.46 117.19 134.05 117.76 132.68 118.32C125.18 121.36 117.74 124.84 109.69 126.14C98.7905 127.9 88.5505 125.31 83.5105 123.55C84.5205 122.05 87.5305 120.77 90.2505 119.79C95.6305 117.86 109.69 114.55 106.93 109.59C104.17 104.63 98.5205 109.59 88.1805 108.9C77.8405 108.21 69.6105 110.95 62.3405 116.74C55.2805 122.36 44.4805 123.89 44.4805 123.89V151.84C60.3705 154.1 76.4205 156.98 92.4505 157.98C98.3905 158.35 104.11 157.67 109.5 155.11C115.16 152.42 120.6 149.29 125.77 145.75C127.23 144.75 128.72 143.68 129.62 142.11C130.55 140.48 130.84 138.59 131.96 137.03C133.05 135.51 134.68 134.27 135.12 132.45C135.42 131.22 135.12 129.91 135.46 128.69C135.97 126.86 137.57 125.48 138.88 124.02H138.87Z" fill="#F0AE75"/>
<path d="M134.67 126.6C128.7 129.72 122.78 133.54 116.3 135.5C109.52 137.56 103.15 136.92 96.24 136.76C96 136.76 96 137.07 96.19 137.14C109.79 142.61 123.84 134.18 135.36 127.78C136.14 127.35 135.45 126.18 134.67 126.59V126.6Z" fill="#D19866"/>
<path d="M130.3 137.21C125.46 139.92 120.78 142.92 115.48 144.69C109.74 146.61 104.32 146.13 98.4503 146.47C98.2503 146.48 98.2203 146.74 98.4003 146.81C109.43 151 121.88 143.83 130.51 137.56C130.72 137.41 130.54 137.08 130.3 137.21Z" fill="#D19866"/>
<path d="M46.9002 120.6L46.1902 151.76C46.1502 153.11 45.1002 154.22 43.7402 154.32L26.0602 155.58C24.5402 155.69 23.2402 154.49 23.2402 152.96V117.84C23.2402 116.24 24.6502 115.01 26.2402 115.24C28.5202 115.56 42.4002 117.6 44.6602 117.94C45.9802 118.14 46.9302 119.28 46.9002 120.6V120.6Z" fill="#32526E"/>
<path d="M102.81 113.19C101.79 113.5 100.21 113.73 99.2204 113.21C98.3304 112.74 97.8204 111.41 98.2004 110.48C98.3004 110.24 98.5004 110.06 98.7104 109.91C100.09 108.9 101.89 108.71 103.59 108.56C103.73 108.55 103.87 108.54 104 108.58C104.14 108.63 104.25 108.75 104.35 108.86C104.89 109.49 105.28 110.26 105.48 111.06C105.52 111.21 105.55 111.37 105.5 111.51C105.46 111.63 105.37 111.73 105.28 111.82C104.61 112.48 103.72 112.89 102.82 113.17L102.81 113.19Z" fill="#F0D0B4"/>
<path d="M33.4102 125.89C33.8902 128.45 35.1702 131.05 34.3702 133.53C33.9302 134.92 32.8902 136.02 32.2302 137.32C30.2902 141.15 31.9602 145.71 32.9602 149.89C33.3502 151.57 33.6402 153.31 33.6602 155.04L26.0602 155.58C24.5402 155.69 23.2402 154.49 23.2402 152.96V117.84C23.2402 116.24 24.6502 115.01 26.2402 115.24C28.5202 115.56 31.8302 116.04 35.1202 116.53C34.1302 119.47 32.7902 122.59 33.4102 125.89V125.89Z" fill="#2B465E"/>
<path d="M126.48 38.08C126.48 38.08 139.48 30.99 144.71 33.69C149.94 36.39 173.07 62.41 180.16 64.43V76.4L141.33 66.27L125.29 59.35C125.29 59.35 121.41 37.74 126.47 38.08H126.48Z" fill="#F0AE75"/>
<path d="M56.2801 18.42L57.7101 13.27C57.9901 13.37 61.2601 14.55 62.7301 15.07C78.0701 20.49 106.53 30.12 124.86 33.64C125.65 33.79 126.42 33.92 127.15 34.05C128.43 34.27 129.64 34.45 130.77 34.59L123.74 71.04C122.57 70.82 120.78 70.47 118.52 70C106.49 67.53 76.0301 60.77 53.1301 51.34C51.2001 50.54 49.4501 49.78 47.8301 49.04L56.2801 18.42V18.42Z" fill="#69CFA9"/>
<path d="M127.44 32.45C126.71 32.32 125.95 32.19 125.18 32.05C124.5 31.92 123.81 31.78 123.11 31.63C105.45 27.94 79.8502 19.36 66.1502 14.55C65.1202 14.2 56.7002 11.19 56.6202 11.17L45.9102 49.93C48.0302 50.93 50.2402 51.89 52.5302 52.83C53.2102 53.11 53.9002 53.38 54.5802 53.66C75.3902 61.94 101.3 68.01 115.18 70.94C116.27 71.17 125.05 72.92 125.05 72.92L132.72 33.17C131.12 33.02 129.36 32.77 127.45 32.45H127.44ZM55.5902 50.57C55.5902 50.3 55.5902 50.02 55.5602 49.75C55.4102 47.17 54.3302 44.66 52.4702 42.74C52.3002 42.57 52.1302 42.39 51.9402 42.23C51.8002 42.1 51.6502 41.98 51.5002 41.86L57.4102 20.43C57.9902 20.33 58.5502 20.2 59.1202 20.02C60.5202 19.59 61.8302 18.93 63.0102 18.03C63.3402 17.78 63.6602 17.51 63.9602 17.23C71.0102 19.71 80.3502 22.9 90.1102 25.97C84.1602 25.84 78.2902 28.68 74.8102 34.03C69.4502 42.26 71.7802 53.28 80.0102 58.64C80.2402 58.79 80.4802 58.91 80.7202 59.05C72.2302 56.59 63.5102 53.74 55.6002 50.58L55.5902 50.57ZM123.58 63.36L122.47 69.13C121.48 68.93 117.53 68.13 116.78 67.97C110.43 66.64 100.51 64.43 89.5302 61.5C95.4002 61.55 101.18 58.72 104.62 53.43C109.98 45.2 107.65 34.18 99.4202 28.82C107.85 31.31 116.19 33.54 123.22 34.97L123.24 35.04C123.74 37.72 125.3 40.19 127.75 41.83L123.59 63.36H123.58Z" fill="#4D967B"/>
<path d="M92.7703 43.07C91.1403 41.58 85.3203 39.28 88.7203 36.47C89.8103 35.57 91.0803 35.59 92.3403 36.1C93.3403 36.5 95.4003 39.15 96.6403 37.91C98.0203 36.53 95.7203 34.46 94.9103 33.77C94.0603 33.04 92.9903 32.6 91.8903 32.4C89.6503 32 87.1303 32.57 85.4203 34.11C84.7803 34.69 84.2703 35.4 83.9503 36.21C82.9303 38.81 84.4703 41.47 86.4603 43.12C88.2703 44.62 91.8803 45.34 91.9703 48.2C91.9803 48.54 91.9203 48.88 91.8203 49.21C91.4703 50.38 90.4803 51.5 89.2503 51.47C87.1903 51.42 84.8303 49.92 84.0603 47.98C83.0803 45.5 79.0503 46.65 80.0503 49.16C82.3703 55.01 92.2003 58.16 94.9503 50.86C96.0003 48.08 94.9003 45.02 92.7703 43.08V43.07Z" fill="#DADADA"/>
<path d="M93.4604 30.89C93.3704 30.3 93.1704 29.93 92.8104 29.85C91.6604 29.59 90.6904 31.75 90.4304 32.79C89.5104 36.44 88.8604 40.07 88.0504 43.68C87.5904 45.74 87.0204 47.78 86.5304 49.84C86.0404 51.93 85.5104 53.95 85.3704 56.1C85.3204 56.91 85.8504 58.32 86.8204 57.32C87.0504 57.09 87.1804 56.78 87.3004 56.48C88.8904 52.59 89.6104 48.39 90.7204 44.33C91.1504 42.78 93.9104 33.95 93.4604 30.87V30.89Z" fill="#DADADA"/>
<path d="M44.97 53.64L44.5 48.32C44.79 48.32 48.27 48.27 49.84 48.25C66.1 47.96 96.14 47.01 114.54 43.89C115.33 43.75 116.1 43.61 116.83 43.47C118.11 43.23 119.3 42.97 120.41 42.71L126.58 79.31C125.4 79.51 123.61 79.81 121.33 80.16C109.19 82.06 78.3 86.39 53.54 85.57C51.45 85.5 49.55 85.4 47.77 85.27L44.97 53.63V53.64Z" fill="#76E8BE"/>
<path d="M102.619 68.8965C104.411 59.2361 98.0325 49.9521 88.3722 48.1599C78.7119 46.3677 69.4278 52.7461 67.6356 62.4064C65.8435 72.0667 72.2219 81.3508 81.8822 83.143C91.5425 84.9351 100.827 78.5568 102.619 68.8965Z" fill="#59AD8E"/>
<path d="M87.7804 63.96C85.7304 63.13 79.4804 63.01 81.6804 59.2C82.3904 57.97 83.5804 57.55 84.9404 57.59C86.0104 57.62 88.8804 59.38 89.6004 57.78C90.4104 56 87.5304 54.87 86.5304 54.51C85.4704 54.13 84.3204 54.08 83.2204 54.29C80.9804 54.7 78.8304 56.12 77.7604 58.16C77.3604 58.93 77.1304 59.77 77.1204 60.64C77.0704 63.44 79.4504 65.39 81.8904 66.23C84.1204 67 87.7404 66.41 88.8304 69.06C88.9604 69.38 89.0204 69.72 89.0404 70.06C89.1204 71.28 88.5904 72.68 87.4304 73.08C85.4804 73.75 82.7504 73.17 81.3504 71.63C79.5604 69.65 76.2004 72.14 78.0104 74.14C82.2304 78.81 92.5504 78.32 92.5604 70.51C92.5604 67.54 90.4604 65.06 87.7904 63.98L87.7804 63.96Z" fill="white"/>
<path d="M84.1602 52.3C83.8702 51.78 83.5502 51.5 83.1902 51.55C82.0202 51.71 81.8702 54.07 81.9902 55.14C82.4102 58.88 83.0602 62.51 83.5702 66.18C83.8602 68.28 84.0402 70.38 84.3102 72.48C84.5802 74.6 84.8002 76.69 85.4202 78.75C85.6502 79.52 86.6502 80.66 87.2102 79.39C87.3402 79.09 87.3602 78.76 87.3702 78.44C87.5002 74.24 86.7002 70.05 86.3202 65.87C86.1702 64.26 85.6802 55.03 84.1702 52.3H84.1602Z" fill="white"/>
<path d="M127.23 73.39L121.72 40.7C120.17 41.12 118.43 41.5 116.54 41.87C115.81 42.01 115.05 42.15 114.28 42.28C113.6 42.39 112.9 42.5 112.19 42.61C94.3602 45.36 67.3702 46.26 52.8502 46.55C51.7602 46.58 42.8202 46.71 42.7402 46.72L46.2802 86.78C48.6202 86.97 51.0202 87.1 53.4902 87.18C54.2302 87.2 54.9602 87.22 55.7002 87.24C78.0902 87.71 104.48 84.33 118.51 82.21C119.61 82.05 128.45 80.61 128.45 80.61L127.23 73.38V73.39ZM55.5802 84C55.4902 83.74 55.3802 83.49 55.2702 83.24C54.2302 80.87 52.3402 78.9 49.9202 77.76C49.7002 77.66 49.4802 77.56 49.2402 77.47C49.0602 77.4 48.8802 77.34 48.7002 77.27L46.7402 55.13C47.2502 54.83 47.7302 54.51 48.2002 54.15C49.3602 53.26 50.3502 52.18 51.1402 50.92C51.3602 50.57 51.5602 50.21 51.7502 49.84C67.9902 49.52 95.5502 48.56 113.46 45.72L113.5 45.78C114.9 48.12 117.23 49.89 120.1 50.56L123.74 72.19C121.49 73.76 119.76 76.07 118.98 78.89C106.09 80.85 78.5102 84.52 55.5802 84.01V84Z" fill="#59AD8E"/>
<path d="M133.57 73.53C133.57 73.53 128.84 68.3 122.6 66.1C116.35 63.91 97.9504 56.48 101.16 47.87C104.37 39.26 118.55 47.03 122.77 49.9C126.99 52.77 141.85 57.83 148.09 56.48C154.34 55.13 180.17 72.18 180.17 72.18V89.91C180.17 89.91 171.56 89.23 164.13 88.73C156.7 88.22 141 82.65 133.57 73.54V73.53Z" fill="#F0AE75"/>
<path d="M192.69 90.91C192.83 93.08 190.94 94.83 188.78 94.52L176.18 92.69C174.29 92.41 172.99 90.64 173.3 88.75L177.24 64.38C177.51 62.73 178.94 61.51 180.62 61.51H187.55C189.36 61.51 190.85 62.91 190.97 64.71L192.69 90.91Z" fill="#32526E"/>
<path d="M107.08 46.06C108.01 45.93 108.96 46.28 109.73 46.82C111.29 47.92 112.21 49.75 112.52 51.63C112.68 52.57 112.67 53.61 112.15 54.4C111.53 55.34 110.3 55.72 109.18 55.59C107.2 55.37 103.57 53.47 103.12 51.31C102.68 49.21 105.06 46.34 107.09 46.05L107.08 46.06Z" fill="#F0D0B4"/>
<path d="M145.21 53.09C142.83 52.98 140.47 53.25 138.09 53.15C138.92 52.79 139.63 52.25 140 51.5C140.16 51.18 139.9 50.78 139.52 50.88C138.61 51.13 137.87 51.79 137 52.15C136.31 52.44 135.55 52.64 134.8 52.81C133.07 52.55 131.35 52.24 129.6 52.18C129.45 52.18 129.4 52.38 129.53 52.46C133.74 54.89 140.72 55.37 145.34 54C145.84 53.85 145.74 53.12 145.22 53.09H145.21Z" fill="#D19866"/>
<path d="M192.69 90.91C192.83 93.08 190.94 94.83 188.78 94.52L180.84 93.37C180.84 93.06 180.87 92.76 180.92 92.45C181.55 88 184.66 83.91 184.05 79.46C183.76 77.25 182.55 75.21 182.52 72.99C182.5 71.31 183.15 69.71 183.56 68.08C184.07 66.08 183.78 63.81 183.36 61.51H187.55C189.36 61.51 190.85 62.91 190.97 64.71L192.69 90.91Z" fill="#2B465E"/>
<path d="M33.0499 88.97C30.7699 89.07 28.7899 90.77 26.7699 91.78C24.3399 92.99 21.7399 93.91 19.3599 95.22C18.3599 95.77 19.0999 97.06 20.0799 96.92C22.7399 96.53 25.2899 95.46 27.7499 94.4C29.9099 93.47 32.6999 92.65 33.9899 90.61C34.4199 89.93 33.8599 88.94 33.0499 88.98V88.97Z" fill="white"/>
<path d="M39.3498 97.82C39.2998 97.51 38.9498 97.16 38.6398 97.11C36.5898 96.77 35.1898 99.11 33.9398 100.48C32.3398 102.23 30.8398 104.02 29.4198 105.91C28.5798 107.02 30.3598 108.3 31.3098 107.37C32.9798 105.72 34.6098 104.02 36.2698 102.36C37.5598 101.06 39.6598 99.84 39.3598 97.84L39.3498 97.82Z" fill="white"/>
</g>
<defs>
<clipPath id="clip0_263_2510">
<rect width="195.04" height="172.07" fill="white"/>
</clipPath>
</defs>
</svg>
