<svg width="918" height="577" viewBox="0 0 918 577" fill="none" xmlns="http://www.w3.org/2000/svg">
<path d="M691.91 219.67C531.46 169.84 717.49 125.31 571.37 51.07C469.82 -0.519968 267.19 40.15 187.08 99.41C181.74 103.36 123.59 137.3 153.94 196.85C217.19 320.95 92.0598 274.52 48.9498 368.37C3.2198 467.94 44.7998 573.9 180.67 573.9H720.21C863.96 560.69 936.9 295.76 691.91 219.67V219.67Z" fill="#9F95FF"/>
<path d="M58.1 142.25C58.94 143.01 59.66 143.93 60.25 145.02C60.84 146.11 61.2599 147.26 61.5099 148.48C61.7599 149.7 61.89 150.77 61.89 151.69C61.89 152.81 61.6799 154.11 61.2599 155.59C60.8399 157.07 60.2299 158.47 59.4299 159.79C58.6299 161.11 57.64 162.23 56.46 163.15C55.28 164.07 53.93 164.53 52.42 164.53C51.16 164.53 50.08 164.15 49.2 163.39C48.32 162.63 47.6 161.71 47.05 160.62C46.5 159.53 46.0799 158.4 45.7899 157.21C45.4899 156.02 45.35 154.97 45.35 154.05C45.35 152.86 45.5599 151.53 45.9799 150.05C46.3999 148.57 47.0299 147.17 47.8699 145.85C48.7099 144.53 49.74 143.41 50.96 142.49C52.18 141.57 53.55 141.11 55.07 141.11C56.25 141.11 57.26 141.49 58.1 142.25V142.25ZM115.38 171.31C116.26 172.07 116.98 172.99 117.53 174.08C118.08 175.17 118.5 176.32 118.79 177.54C119.08 178.76 119.23 179.8 119.23 180.65C119.23 181.77 119.02 183.07 118.6 184.55C118.18 186.03 117.55 187.43 116.71 188.75C115.87 190.07 114.86 191.19 113.68 192.11C112.5 193.03 111.15 193.49 109.64 193.49C108.46 193.49 107.43 193.11 106.55 192.35C105.67 191.59 104.93 190.69 104.34 189.63C103.75 188.58 103.33 187.46 103.08 186.27C102.83 185.08 102.7 184.03 102.7 183.11C102.7 181.92 102.91 180.59 103.33 179.11C103.75 177.63 104.38 176.23 105.22 174.91C106.06 173.59 107.09 172.47 108.31 171.55C109.53 170.63 110.9 170.17 112.42 170.17C113.51 170.17 114.5 170.55 115.39 171.31H115.38ZM61.63 172.79C64.32 171.24 66.5299 169.31 68.2599 167.01C69.9899 164.7 71.25 162.2 72.05 159.5C72.85 156.8 73.25 154.29 73.25 151.99C73.25 149.82 72.9799 147.43 72.4299 144.82C71.8799 142.22 70.89 139.81 69.46 137.6C68.03 135.39 66.11 133.55 63.71 132.06C61.31 130.58 58.2199 129.84 54.4299 129.84C50.9799 129.84 47.92 130.68 45.27 132.36C42.62 134.04 40.34 136.12 38.45 138.59C36.56 141.06 35.12 143.67 34.16 146.4C33.19 149.14 32.71 151.56 32.71 153.67C32.71 155.65 33.11 157.87 33.91 160.34C34.71 162.81 35.89 165.13 37.45 167.31C39.01 169.48 40.99 171.33 43.39 172.85C45.79 174.37 48.63 175.12 51.92 175.12C55.71 175.12 58.9499 174.35 61.6499 172.8L61.63 172.79ZM108.3 145.11C109.69 143.23 110.91 141.45 111.96 139.77C113.01 138.09 113.85 136.57 114.49 135.22C115.12 133.87 115.44 132.77 115.44 131.91C115.44 131.51 115.29 131.02 115 130.43C114.7 129.84 114.01 129.54 112.92 129.54C111.74 129.54 110.14 130.27 108.12 131.71C106.1 133.16 103.87 134.99 101.43 137.2C98.9899 139.41 96.48 141.86 93.91 144.56C91.34 147.26 88.9199 149.87 86.6499 152.37C84.3799 154.88 82.3699 157.11 80.6499 159.09C78.9199 161.07 77.72 162.45 77.05 163.24C76.04 164.43 74.63 166.06 72.82 168.13C71.01 170.21 69.0699 172.48 67.0099 174.95C64.9499 177.42 62.82 180.01 60.63 182.71C58.44 185.41 56.4799 188 54.7599 190.47C53.0299 192.94 51.6 195.21 50.47 197.29C49.33 199.37 48.7599 201.03 48.7599 202.28C48.7599 202.61 48.91 203.12 49.2 203.81C49.49 204.5 50.23 204.85 51.41 204.85C52.25 204.85 53.39 204.39 54.82 203.47C56.25 202.55 57.8499 201.33 59.6199 199.81C61.3899 198.29 63.22 196.56 65.11 194.62C67 192.68 68.92 190.72 70.86 188.74C72.8 186.7 74.71 184.64 76.61 182.56C78.5 180.48 80.2299 178.56 81.7899 176.78C83.3499 175 84.7099 173.44 85.8999 172.08C87.0799 170.73 87.96 169.72 88.55 169.07C89.22 168.28 90.13 167.24 91.27 165.96C92.41 164.68 93.67 163.21 95.06 161.56C96.45 159.91 97.92 158.17 99.4799 156.32C101.04 154.48 102.57 152.6 104.09 150.69C105.52 148.85 106.93 146.98 108.32 145.1L108.3 145.11ZM118.97 201.75C121.66 200.2 123.87 198.27 125.6 195.97C127.32 193.66 128.59 191.16 129.39 188.46C130.19 185.76 130.59 183.25 130.59 180.95C130.59 178.78 130.32 176.4 129.77 173.83C129.22 171.26 128.23 168.86 126.8 166.61C125.37 164.37 123.43 162.51 120.99 161.02C118.55 159.54 115.43 158.8 111.64 158.8C108.27 158.8 105.26 159.66 102.61 161.37C99.96 163.08 97.7 165.16 95.85 167.6C94 170.04 92.5899 172.64 91.6199 175.41C90.6499 178.18 90.17 180.58 90.17 182.63C90.17 184.68 90.55 186.83 91.31 189.3C92.07 191.77 93.22 194.11 94.78 196.32C96.34 198.53 98.32 200.37 100.72 201.86C103.12 203.34 105.96 204.08 109.25 204.08C113.04 204.08 116.28 203.31 118.98 201.76L118.97 201.75Z" fill="white"/>
<path d="M904.78 428.21L915.98 417.01C917.49 415.5 917.49 413.04 915.98 411.53C914.47 410.02 912.01 410.02 910.5 411.53L899.3 422.73L888.1 411.53C886.59 410.02 884.13 410.02 882.62 411.53C881.11 413.04 881.11 415.5 882.62 417.01L893.82 428.21L882.62 439.41C881.11 440.92 881.11 443.38 882.62 444.89C884.13 446.4 886.59 446.4 888.1 444.89L899.3 433.69L910.5 444.89C912.01 446.4 914.47 446.4 915.98 444.89C917.49 443.38 917.49 440.92 915.98 439.41L904.78 428.21Z" fill="#9F95FF"/>
<path d="M211.84 48.26C211.42 48.26 211.18 48.2 210.96 48.13C210.77 48.06 210.6 47.97 210.38 47.82C210.01 47.56 209.53 47.08 208.96 46.38C208.53 45.86 208.05 45.22 207.48 44.52C207.05 44 206.57 43.44 206 42.87C205.15 42.03 204.08 41.17 202.74 40.53C201.4 39.89 199.79 39.51 198.12 39.52C196.82 39.52 195.57 39.73 194.44 40.14C193.46 40.49 192.58 40.98 191.83 41.51C190.52 42.45 189.58 43.52 188.81 44.45C188.23 45.15 187.75 45.8 187.32 46.33C186.99 46.73 186.7 47.06 186.44 47.33C186.04 47.72 185.73 47.94 185.47 48.06C185.2 48.18 184.94 48.26 184.4 48.27C183.98 48.27 183.74 48.21 183.52 48.14C183.33 48.07 183.16 47.98 182.95 47.83C182.58 47.57 182.1 47.09 181.53 46.39C181.1 45.87 180.62 45.23 180.05 44.53C179.62 44.01 179.14 43.45 178.57 42.88C177.72 42.04 176.65 41.18 175.31 40.54C173.97 39.9 172.36 39.52 170.69 39.53C169.39 39.53 168.14 39.74 167.01 40.15C166.03 40.5 165.15 40.99 164.4 41.52C163.09 42.46 162.15 43.53 161.38 44.46C160.8 45.16 160.32 45.81 159.89 46.34C159.56 46.74 159.27 47.07 159.01 47.34C158.61 47.73 158.31 47.95 158.04 48.07C157.77 48.19 157.51 48.27 156.97 48.28C156.55 48.28 156.31 48.22 156.09 48.15C155.9 48.08 155.73 47.99 155.52 47.84C155.15 47.58 154.67 47.1 154.1 46.4C153.67 45.88 153.19 45.24 152.62 44.54C152.19 44.02 151.71 43.46 151.14 42.89C150.29 42.05 149.22 41.19 147.88 40.55C146.54 39.91 144.93 39.53 143.26 39.54C140.97 39.54 139.1 41.4 139.1 43.7C139.1 46 140.96 47.86 143.26 47.86C143.68 47.86 143.92 47.92 144.14 47.99C144.33 48.06 144.5 48.15 144.71 48.3C145.08 48.56 145.56 49.04 146.13 49.74C146.56 50.26 147.04 50.9 147.61 51.6C148.04 52.12 148.52 52.68 149.09 53.25C149.94 54.09 151.01 54.95 152.35 55.59C153.69 56.23 155.3 56.61 156.97 56.6C158.27 56.6 159.52 56.39 160.65 55.98C161.63 55.63 162.51 55.14 163.26 54.61C164.57 53.67 165.51 52.6 166.28 51.67C166.86 50.97 167.34 50.32 167.77 49.79C168.09 49.39 168.39 49.06 168.65 48.79C169.05 48.4 169.36 48.18 169.62 48.06C169.89 47.94 170.15 47.86 170.69 47.85C171.11 47.85 171.35 47.91 171.57 47.98C171.76 48.05 171.93 48.14 172.14 48.29C172.51 48.55 172.99 49.03 173.56 49.73C173.99 50.25 174.47 50.89 175.04 51.59C175.47 52.11 175.95 52.67 176.52 53.24C177.37 54.08 178.44 54.94 179.78 55.58C181.12 56.22 182.73 56.6 184.4 56.59C185.7 56.59 186.95 56.38 188.08 55.97C189.06 55.62 189.94 55.13 190.69 54.6C192 53.66 192.94 52.59 193.71 51.66C194.29 50.96 194.77 50.31 195.2 49.78C195.53 49.38 195.82 49.05 196.08 48.78C196.48 48.39 196.79 48.17 197.05 48.05C197.32 47.93 197.58 47.85 198.12 47.84C198.54 47.84 198.78 47.9 199 47.97C199.19 48.04 199.36 48.13 199.58 48.28C199.95 48.54 200.43 49.02 201 49.72C201.43 50.24 201.91 50.88 202.48 51.58C202.91 52.1 203.39 52.66 203.96 53.23C204.81 54.07 205.88 54.93 207.22 55.57C208.56 56.21 210.17 56.59 211.84 56.58C214.13 56.58 216 54.72 216 52.42C216 50.12 214.14 48.26 211.84 48.26Z" fill="#9F95FF"/>
<path d="M35.6798 291.4C32.0898 288.97 27.7298 287.55 23.0798 287.55C19.9798 287.55 17.0098 288.18 14.3098 289.32C10.2598 291.03 6.8298 293.89 4.3998 297.48C1.9698 301.07 0.549805 305.43 0.549805 310.08C0.549805 313.18 1.17981 316.15 2.31981 318.85C4.02981 322.9 6.8798 326.33 10.4798 328.76C14.0698 331.19 18.4298 332.61 23.0798 332.61C26.1798 332.61 29.1498 331.98 31.8498 330.84C35.8998 329.13 39.3298 326.27 41.7598 322.68C44.1898 319.09 45.6098 314.73 45.6098 310.08C45.6098 306.98 44.9798 304.01 43.8398 301.31C42.1298 297.26 39.2798 293.83 35.6798 291.4ZM36.4098 315.71C35.3198 318.3 33.4798 320.52 31.1598 322.08C28.8498 323.64 26.0798 324.55 23.0698 324.55C21.0598 324.55 19.1698 324.15 17.4398 323.41C14.8498 322.32 12.6298 320.48 11.0698 318.16C9.50981 315.85 8.59981 313.08 8.59981 310.07C8.59981 308.06 9.00981 306.17 9.73981 304.44C10.8298 301.85 12.6698 299.63 14.9898 298.07C17.2998 296.51 20.0698 295.6 23.0798 295.6C25.0898 295.6 26.9798 296 28.7098 296.74C31.2998 297.83 33.5198 299.67 35.0798 301.99C36.6398 304.3 37.5498 307.07 37.5498 310.08C37.5498 312.09 37.1398 313.98 36.4098 315.71Z" fill="#9F95FF"/>
<path d="M107.55 490.99C107.55 515.19 87.9296 534.82 63.7197 534.82C39.5097 534.82 19.8896 515.2 19.8896 490.99C19.8896 466.78 39.5097 447.16 63.7197 447.16C87.9296 447.16 107.55 466.78 107.55 490.99Z" fill="#FE504F"/>
<path d="M97.9498 490.99C97.9498 509.89 82.6298 525.21 63.7298 525.21C44.8298 525.21 29.5098 509.89 29.5098 490.99C29.5098 472.09 44.8298 456.77 63.7298 456.77C82.6298 456.77 97.9498 472.09 97.9498 490.99Z" fill="#C72F4F"/>
<path d="M71.0696 452.14C85.3596 454.82 96.9496 465.21 101.35 478.82C101.53 479.36 102.11 479.66 102.65 479.49C103.19 479.31 103.49 478.73 103.32 478.19C98.6896 463.86 86.4996 452.94 71.4496 450.11C70.8896 450 70.3496 450.37 70.2396 450.94C70.1296 451.5 70.4996 452.04 71.0696 452.15V452.14Z" fill="white"/>
<path d="M63.1395 515.1H65.9695C67.0595 515.1 67.9495 514.22 67.9495 513.12V512.63C67.9495 511.7 68.6095 510.88 69.5195 510.7C70.9695 510.4 72.2695 509.98 73.3995 509.44C74.9295 508.71 76.1895 507.84 77.1695 506.83C78.1595 505.82 78.8895 504.72 79.3595 503.53C79.8295 502.33 80.0695 501.13 80.0695 499.91C80.0695 498.51 79.8895 497.22 79.5095 496.06C79.1395 494.9 78.6495 493.86 78.0295 492.93C77.4095 492 76.6995 491.16 75.8895 490.42C75.0795 489.68 74.2495 489.02 73.3795 488.44C72.5195 487.86 71.6495 487.35 70.7895 486.92C69.9495 486.5 69.1695 486.12 68.4495 485.78C68.4095 485.76 68.3595 485.74 68.3195 485.73C67.5295 485.43 66.7295 485.11 65.9195 484.76C65.0895 484.4 64.3495 484.03 63.6995 483.65C63.0495 483.27 62.5095 482.88 62.0895 482.48C61.6695 482.08 61.4595 481.69 61.4595 481.31C61.4595 480.7 61.7395 480.2 62.3095 479.81C62.8795 479.42 63.7895 479.23 65.0395 479.23C66.5195 479.23 67.8595 479.32 69.0695 479.49C70.2795 479.66 71.3495 480.04 72.3695 480.16C78.1195 480.85 78.3395 475.47 78.3395 475.47C78.4295 474.67 78.0295 473.89 77.3195 473.5C76.8795 473.26 76.4195 473.03 75.9295 472.83C75.0095 472.44 74.0495 472.11 73.0695 471.85C72.0795 471.58 71.0995 471.38 70.1095 471.24C69.7395 471.19 69.3695 471.14 69.0095 471.1C68.0095 470.99 67.2595 470.14 67.2595 469.14V468.65C67.2595 467.56 66.3795 466.67 65.2795 466.67H62.4495C61.3595 466.67 60.4695 467.55 60.4695 468.65V469.44C60.4695 470.38 59.8095 471.2 58.8895 471.37C57.4995 471.64 56.2595 472.01 55.1695 472.48C53.6895 473.13 52.4695 473.91 51.5095 474.83C50.5495 475.75 49.8395 476.78 49.3895 477.92C48.9295 479.06 48.7095 480.26 48.7095 481.51C48.7095 482.76 48.8695 483.83 49.1795 484.81C49.4895 485.8 49.9195 486.7 50.4795 487.52C51.0295 488.34 51.6695 489.07 52.3895 489.73C53.1095 490.39 53.8795 490.98 54.6995 491.52C55.5195 492.06 56.3495 492.55 57.2095 492.99C58.0395 493.42 58.8595 493.81 59.6495 494.18C59.6895 494.2 59.7395 494.22 59.7795 494.24C61.1895 494.78 62.3995 495.29 63.4095 495.75C64.4395 496.23 65.2795 496.68 65.9295 497.1C66.5795 497.53 67.0695 497.95 67.3795 498.37C67.6895 498.79 67.8495 499.22 67.8495 499.68C67.8495 500.21 67.6895 500.63 67.3795 500.93C67.0695 501.23 66.6495 501.47 66.1295 501.63C65.6095 501.79 65.0095 501.9 64.3395 501.94C63.6695 501.99 62.9595 502.01 62.2195 502.01C61.1795 502.01 60.0995 501.92 58.9995 501.75C57.8995 501.58 56.8295 501.23 55.7195 501.05C48.4995 499.89 49.6495 506.84 49.6495 506.84C49.6495 507.65 50.1495 508.38 50.8995 508.68C52.2995 509.24 53.7595 509.7 55.2695 510.06C56.6495 510.39 58.0295 510.65 59.3995 510.84C60.3895 510.97 61.1295 511.8 61.1295 512.8V513.1C61.1295 514.19 62.0095 515.08 63.1095 515.08L63.1395 515.1Z" fill="white"/>
<path d="M501.07 89.5401C501.07 119.36 476.89 143.54 447.07 143.54C417.25 143.54 393.07 119.37 393.07 89.5401C393.07 59.7101 417.25 35.54 447.07 35.54C476.89 35.54 501.07 59.7101 501.07 89.5401Z" fill="#FE504F"/>
<path d="M489.24 89.54C489.24 112.83 470.36 131.7 447.08 131.7C423.8 131.7 404.92 112.82 404.92 89.54C404.92 66.26 423.8 47.38 447.08 47.38C470.36 47.38 489.24 66.26 489.24 89.54V89.54Z" fill="#C72F4F"/>
<path d="M456.12 41.68C473.73 44.98 488.01 57.78 493.43 74.55C493.65 75.22 494.37 75.59 495.04 75.37C495.71 75.15 496.08 74.4301 495.86 73.7601C490.15 56.1101 475.14 42.6501 456.59 39.1601C455.9 39.0301 455.23 39.49 455.1 40.18C454.97 40.87 455.43 41.54 456.12 41.67V41.68Z" fill="white"/>
<path d="M446.35 119.25H449.83C451.17 119.25 452.26 118.16 452.26 116.82V116.22C452.26 115.07 453.07 114.07 454.2 113.84C455.99 113.47 457.59 112.96 458.98 112.29C460.86 111.39 462.41 110.32 463.63 109.08C464.85 107.84 465.75 106.48 466.33 105.01C466.91 103.54 467.21 102.05 467.21 100.55C467.21 98.8201 466.98 97.2401 466.53 95.8101C466.07 94.3801 465.46 93.1001 464.7 91.9501C463.94 90.8001 463.06 89.7701 462.07 88.8601C461.08 87.9501 460.05 87.1301 458.98 86.4201C457.92 85.7101 456.85 85.0801 455.79 84.5401C454.76 84.0201 453.79 83.5501 452.9 83.1401C452.85 83.1201 452.79 83.0901 452.74 83.0701C451.76 82.7001 450.78 82.3001 449.79 81.8701C448.77 81.4301 447.86 80.9701 447.05 80.5001C446.24 80.0301 445.58 79.5501 445.07 79.0601C444.56 78.5701 444.3 78.0901 444.3 77.6201C444.3 76.8701 444.65 76.2601 445.35 75.7801C446.05 75.3001 447.18 75.0601 448.72 75.0601C450.54 75.0601 452.2 75.1701 453.69 75.3801C455.18 75.5901 456.5 76.0501 457.76 76.2001C464.85 77.0501 465.11 70.4301 465.11 70.4301C465.22 69.4401 464.73 68.4901 463.85 68.0101C463.31 67.7101 462.74 67.4401 462.14 67.1901C461 66.7101 459.83 66.3101 458.61 65.9801C457.39 65.6501 456.18 65.4001 454.96 65.2301C454.5 65.1601 454.05 65.1101 453.6 65.0501C452.37 64.9101 451.45 63.8701 451.45 62.6301V62.0201C451.45 60.6801 450.36 59.5901 449.02 59.5901H445.54C444.2 59.5901 443.11 60.6801 443.11 62.0201V62.9901C443.11 64.1501 442.3 65.1501 441.16 65.3701C439.44 65.7001 437.92 66.1601 436.58 66.7401C434.75 67.5401 433.25 68.5001 432.07 69.6401C430.89 70.7801 430.02 72.0401 429.46 73.4501C428.9 74.8501 428.62 76.3301 428.62 77.8701C428.62 79.4101 428.81 80.7201 429.2 81.9401C429.59 83.1601 430.12 84.2701 430.8 85.2701C431.48 86.2801 432.26 87.1801 433.15 87.9901C434.04 88.8001 434.99 89.5301 435.99 90.2001C436.99 90.8701 438.03 91.4701 439.08 92.0101C440.1 92.5301 441.11 93.0201 442.09 93.4801C442.14 93.5101 442.2 93.5301 442.25 93.5501C443.99 94.2201 445.48 94.8401 446.73 95.4101C447.99 96.0001 449.03 96.5501 449.84 97.0801C450.65 97.6101 451.24 98.1301 451.63 98.6401C452.02 99.1501 452.21 99.6901 452.21 100.25C452.21 100.91 452.02 101.42 451.63 101.79C451.24 102.16 450.73 102.45 450.09 102.65C449.45 102.85 448.71 102.98 447.88 103.04C447.05 103.1 446.18 103.13 445.27 103.13C443.98 103.13 442.66 103.02 441.3 102.81C439.94 102.6 438.63 102.17 437.26 101.95C428.36 100.52 429.78 109.09 429.78 109.09C429.78 110.09 430.39 110.99 431.32 111.36C433.05 112.04 434.85 112.61 436.71 113.06C438.41 113.47 440.11 113.79 441.79 114.02C443.01 114.18 443.92 115.21 443.92 116.43V116.8C443.92 118.14 445.01 119.23 446.35 119.23V119.25Z" fill="white"/>
<path d="M786.26 574.66L495.62 508.84C483.93 506.19 476.6 494.57 479.25 482.88L570.96 77.96C573.61 66.27 585.23 58.94 596.92 61.59L887.56 127.41C899.25 130.06 906.58 141.68 903.93 153.37L812.22 558.29C809.57 569.98 797.95 577.31 786.26 574.66V574.66Z" fill="#FE504F"/>
<path d="M797.61 557.3L492.86 488.28L585.57 78.9401L890.32 147.96L797.61 557.3Z" fill="white"/>
<path d="M499.65 458.32L585.57 78.9401L890.32 147.96L787.2 539.02L499.65 458.32Z" fill="#DADADA"/>
<path d="M782.2 517.93L458.26 450.16L585.57 78.9401L890.32 147.96L782.2 517.93Z" fill="white"/>
<path d="M513.479 292.57C513.169 292.32 512.86 292.09 512.56 291.84L482.229 380.27C501.219 377.1 551.359 349.47 513.479 292.57Z" fill="#DADADA"/>
<path d="M824.12 133.56L820.13 151.19C819.42 154.34 815.25 156.08 810.82 155.08L787.4 149.78L751.22 141.59C751.22 141.59 744.58 144.4 731.1 141.34C717.62 138.29 713.86 133.12 713.86 133.12L677.68 124.93L654.26 119.63C649.83 118.63 646.82 115.26 647.53 112.11L651.52 94.4801L679.04 100.71L711.12 107.97L737 113.83L738.64 114.2L764.52 120.06L796.6 127.32L824.12 133.55V133.56ZM825.38 127.99L797.86 121.76L765.78 114.5L739.9 108.64L738.26 108.27L712.38 102.41L680.3 95.1401L652.78 88.9101C649.71 88.2101 646.65 90.1401 645.96 93.2101L641.97 110.84C640.54 117.16 645.38 123.46 653 125.18L676.42 130.48L710.94 138.3C713.47 140.63 719.03 144.44 729.85 146.89C740.94 149.4 748.15 148.33 751.45 147.47L786.15 155.33L809.57 160.63C817.19 162.36 824.27 158.76 825.7 152.44L829.69 134.81C830.39 131.74 828.46 128.68 825.39 127.99H825.38Z" fill="#B2B2B2"/>
<path d="M824.7 130.97L820.71 148.6C820 151.75 815.83 153.49 811.4 152.49L787.98 147.19L751.8 139C751.8 139 745.16 141.81 731.68 138.75C718.2 135.7 714.44 130.53 714.44 130.53L678.26 122.34L654.84 117.04C650.41 116.04 647.4 112.67 648.11 109.52L652.1 91.89L679.62 98.12L711.7 105.38L737.58 111.24L739.22 111.61L765.1 117.47L797.18 124.73L824.7 130.96V130.97ZM825.96 125.4L798.44 119.17L766.36 111.91L740.48 106.05L738.84 105.68L712.96 99.82L680.88 92.56L653.36 86.33C650.29 85.63 647.23 87.56 646.54 90.63L642.55 108.26C641.12 114.58 645.96 120.88 653.58 122.6L677 127.9L711.52 135.72C714.05 138.05 719.6 141.86 730.43 144.31C741.52 146.82 748.73 145.75 752.03 144.89L786.73 152.75L810.15 158.05C817.77 159.77 824.85 156.18 826.28 149.86L830.27 132.23C830.97 129.16 829.04 126.1 825.97 125.41L825.96 125.4Z" fill="#DADADA"/>
<path d="M809.7 134.99L814.71 112.88C816 107.17 812.42 101.48 806.71 100.19L776.5 93.35L711.83 78.7L681.62 71.86C675.91 70.57 670.22 74.15 668.93 79.86L663.92 101.97L809.71 134.99H809.7Z" fill="#2D2D2D"/>
<path d="M675.75 285.43L613.72 271.1C612.77 270.88 611.73 271.48 611.4 272.44C611.07 273.4 611.56 274.35 612.51 274.57L674.54 288.9C675.49 289.12 676.52 288.52 676.86 287.56C677.2 286.6 676.7 285.65 675.75 285.43Z" fill="black"/>
<path d="M678.529 277.46L647.089 270.22V270.18L616.499 263.13C615.549 262.91 614.509 263.51 614.179 264.47C613.849 265.43 614.339 266.38 615.289 266.6L622.189 268.19V268.23L677.319 280.93C678.269 281.15 679.309 280.55 679.639 279.59C679.969 278.63 679.479 277.68 678.529 277.46V277.46Z" fill="black"/>
<path d="M681.31 269.48L619.28 255.15C618.33 254.93 617.3 255.53 616.96 256.49C616.63 257.45 617.12 258.4 618.07 258.62L680.1 272.95C681.05 273.17 682.09 272.57 682.42 271.61C682.75 270.65 682.26 269.7 681.31 269.48Z" fill="black"/>
<path d="M661 333.6L598.97 319.27C598.02 319.05 596.98 319.65 596.65 320.61C596.32 321.57 596.81 322.52 597.76 322.74L659.79 337.07C660.74 337.29 661.77 336.69 662.11 335.73C662.45 334.77 661.95 333.82 661 333.6Z" fill="black"/>
<path d="M663.77 325.63L632.33 318.39V318.35L601.74 311.3C600.79 311.08 599.75 311.68 599.42 312.64C599.09 313.6 599.58 314.55 600.53 314.77L607.43 316.36V316.4L662.56 329.1C663.51 329.32 664.55 328.72 664.88 327.76C665.21 326.8 664.72 325.85 663.77 325.63V325.63Z" fill="black"/>
<path d="M666.549 317.65L604.519 303.32C603.569 303.1 602.539 303.7 602.199 304.66C601.869 305.62 602.359 306.57 603.309 306.79L665.339 321.12C666.289 321.34 667.329 320.74 667.659 319.78C667.989 318.82 667.499 317.87 666.549 317.65Z" fill="black"/>
<path d="M787.71 316.24L725.68 301.91C724.73 301.69 723.69 302.29 723.36 303.25C723.03 304.21 723.52 305.16 724.47 305.38L786.5 319.71C787.45 319.93 788.48 319.33 788.82 318.37C789.16 317.41 788.66 316.46 787.71 316.24Z" fill="black"/>
<path d="M790.49 308.27L759.05 301.03V300.99L728.46 293.94C727.51 293.72 726.47 294.32 726.14 295.28C725.81 296.24 726.3 297.19 727.25 297.41L734.15 299V299.04L789.28 311.74C790.23 311.96 791.27 311.36 791.6 310.4C791.93 309.44 791.44 308.49 790.49 308.27V308.27Z" fill="black"/>
<path d="M793.27 300.29L731.24 285.96C730.29 285.74 729.26 286.34 728.92 287.3C728.59 288.26 729.08 289.21 730.03 289.43L792.06 303.76C793.01 303.98 794.05 303.38 794.38 302.42C794.71 301.46 794.22 300.51 793.27 300.29Z" fill="black"/>
<path d="M772.96 364.41L710.93 350.08C709.98 349.86 708.94 350.46 708.61 351.42C708.28 352.38 708.77 353.33 709.72 353.55L771.75 367.88C772.7 368.1 773.73 367.5 774.07 366.54C774.41 365.58 773.91 364.63 772.96 364.41Z" fill="black"/>
<path d="M775.74 356.44L744.3 349.2V349.16L713.71 342.11C712.76 341.89 711.72 342.49 711.39 343.45C711.06 344.41 711.55 345.36 712.5 345.58L719.4 347.17V347.21L774.53 359.91C775.48 360.13 776.52 359.53 776.85 358.57C777.18 357.61 776.69 356.66 775.74 356.44V356.44Z" fill="black"/>
<path d="M778.52 348.46L716.49 334.13C715.54 333.91 714.51 334.51 714.17 335.47C713.84 336.43 714.33 337.38 715.28 337.6L777.31 351.93C778.26 352.15 779.3 351.55 779.63 350.59C779.96 349.63 779.47 348.68 778.52 348.46Z" fill="black"/>
<path d="M727.83 475.51L665.8 461.18C664.85 460.96 663.81 461.56 663.48 462.52C663.15 463.48 663.64 464.43 664.59 464.65L726.62 478.98C727.57 479.2 728.6 478.6 728.94 477.64C729.28 476.68 728.78 475.73 727.83 475.51Z" fill="black"/>
<path d="M730.61 467.53L699.17 460.29V460.25L668.58 453.2C667.63 452.98 666.59 453.58 666.26 454.54C665.93 455.5 666.42 456.45 667.37 456.67L674.27 458.26V458.3L729.4 471C730.35 471.22 731.39 470.62 731.72 469.66C732.05 468.7 731.56 467.75 730.61 467.53V467.53Z" fill="black"/>
<path d="M733.379 459.56L671.349 445.23C670.399 445.01 669.37 445.61 669.03 446.57C668.7 447.53 669.189 448.48 670.139 448.7L732.169 463.03C733.119 463.25 734.159 462.65 734.489 461.69C734.819 460.73 734.329 459.78 733.379 459.56Z" fill="black"/>
<path d="M583.92 246.06L604.47 250.79L597.21 271.62L576.66 266.89L583.92 246.06ZM579.77 244.41L572.07 266.52C571.34 268.61 572.42 270.7 574.49 271.17L596.3 276.19C598.37 276.67 600.63 275.35 601.36 273.26L609.06 251.15C609.79 249.06 608.71 246.97 606.64 246.5L584.83 241.48C582.77 241 580.5 242.32 579.77 244.41Z" fill="#FE504F"/>
<path d="M611.6 242.85L590.27 260.76H590.29C589.96 261.02 589.72 261.13 589.58 261.17C589.43 261.21 589.37 261.21 589.23 261.18C589.13 261.16 588.99 261.1 588.8 260.98C588.61 260.85 588.38 260.65 588.13 260.35L585.7 262.36L588.36 260.68L583.17 251.77C582.39 250.43 580.56 250.09 579.09 251.02C577.62 251.95 577.06 253.79 577.85 255.13L583.04 264.04C583.1 264.14 583.19 264.28 583.27 264.37C583.79 265 584.37 265.55 585.03 265.99C585.69 266.43 586.43 266.76 587.23 266.95C588.34 267.21 589.57 267.16 590.72 266.81C591.88 266.46 592.94 265.85 593.87 265.07H593.89L615.22 247.15C616.55 246.03 616.83 244.16 615.83 242.98C614.83 241.79 612.95 241.74 611.61 242.86L611.6 242.85Z" fill="black"/>
<path d="M681.42 321.65L701.97 326.38L694.71 347.21L674.16 342.48L681.42 321.65V321.65ZM677.27 320L669.57 342.11C668.84 344.2 669.92 346.29 671.99 346.76L693.8 351.78C695.87 352.26 698.13 350.94 698.86 348.85L706.56 326.74C707.29 324.65 706.21 322.56 704.14 322.09L682.33 317.07C680.27 316.59 678 317.91 677.27 320Z" fill="#FE504F"/>
<path d="M709.09 318.44L687.76 336.35H687.78C687.45 336.61 687.21 336.72 687.07 336.76C686.92 336.8 686.86 336.8 686.72 336.77C686.62 336.75 686.48 336.69 686.29 336.57C686.1 336.44 685.87 336.24 685.62 335.94L683.19 337.95L685.85 336.27L680.66 327.36C679.88 326.02 678.05 325.68 676.58 326.61C675.11 327.54 674.55 329.38 675.34 330.72L680.53 339.63C680.59 339.73 680.68 339.87 680.76 339.96C681.28 340.59 681.86 341.14 682.52 341.58C683.18 342.02 683.92 342.35 684.72 342.54C685.83 342.8 687.06 342.75 688.21 342.4C689.37 342.05 690.43 341.44 691.36 340.66H691.38L712.71 322.74C714.04 321.62 714.32 319.75 713.32 318.57C712.32 317.38 710.44 317.33 709.1 318.45L709.09 318.44Z" fill="black"/>
<path d="M697.62 275.13L718.17 279.86L710.91 300.69L690.36 295.96L697.62 275.13ZM693.47 273.48L685.77 295.59C685.04 297.68 686.12 299.77 688.19 300.24L710 305.26C712.07 305.74 714.33 304.42 715.06 302.33L722.76 280.22C723.49 278.13 722.41 276.04 720.34 275.57L698.53 270.55C696.47 270.07 694.2 271.39 693.47 273.48Z" fill="#FE504F"/>
<path d="M812.02 249.27L595.23 199.62C594.28 199.4 593.24 200 592.91 200.96C592.58 201.92 593.07 202.87 594.02 203.09L810.81 252.74C811.76 252.96 812.8 252.36 813.13 251.4C813.46 250.44 812.97 249.49 812.02 249.27Z" fill="black"/>
<path d="M814.79 241.29L598 191.64C597.05 191.42 596.02 192.02 595.68 192.98C595.35 193.94 595.84 194.89 596.79 195.11L813.58 244.76C814.53 244.98 815.57 244.38 815.9 243.42C816.23 242.46 815.74 241.51 814.79 241.29Z" fill="black"/>
<path d="M743.67 446.51L526.88 396.86C525.93 396.64 524.89 397.24 524.56 398.2C524.23 399.16 524.72 400.11 525.67 400.33L742.46 449.98C743.41 450.2 744.45 449.6 744.78 448.64C745.11 447.68 744.62 446.73 743.67 446.51Z" fill="black"/>
<path d="M746.44 438.53L529.65 388.88C528.7 388.66 527.67 389.26 527.33 390.22C527 391.18 527.49 392.13 528.44 392.35L745.23 442C746.18 442.22 747.22 441.62 747.55 440.66C747.88 439.7 747.39 438.75 746.44 438.53Z" fill="black"/>
<path d="M806.98 265.71L590.19 216.06C589.24 215.84 588.21 216.44 587.87 217.4C587.55 218.33 585.34 224.66 585.09 225.37C584.76 226.33 585.25 227.28 586.2 227.5L802.99 277.15C803.94 277.37 804.98 276.77 805.31 275.81C805.58 275.03 807.95 268.24 808.09 267.84C808.42 266.88 807.93 265.93 806.98 265.71Z" fill="black"/>
<path d="M762.54 391.83L545.75 342.18C544.8 341.96 543.76 342.56 543.43 343.52C543.1 344.48 543.59 345.43 544.54 345.65L761.33 395.3C762.28 395.52 763.32 394.92 763.65 393.96C763.98 393 763.49 392.05 762.54 391.83Z" fill="black"/>
<path d="M765.32 383.85L548.53 334.2C547.58 333.98 546.55 334.58 546.21 335.54C545.88 336.5 546.37 337.45 547.32 337.67L764.11 387.32C765.06 387.54 766.1 386.94 766.43 385.98C766.76 385.02 766.27 384.07 765.32 383.85Z" fill="black"/>
<path d="M757.51 408.26L540.72 358.61C539.77 358.39 538.74 358.99 538.4 359.95C538.08 360.88 535.87 367.21 535.62 367.92C535.29 368.88 535.78 369.83 536.73 370.05L753.52 419.7C754.47 419.92 755.51 419.32 755.84 418.36C756.11 417.58 758.48 410.79 758.62 410.39C758.95 409.43 758.46 408.48 757.51 408.26Z" fill="black"/>
<path d="M695.32 190.92L819.03 219.41C819.98 219.63 821.02 219.03 821.35 218.07C821.68 217.11 821.19 216.16 820.24 215.94L696.53 187.45C695.58 187.23 694.55 187.83 694.21 188.79C693.88 189.75 694.37 190.7 695.32 190.92Z" fill="black"/>
<path d="M698.099 182.94L821.809 211.43C822.759 211.65 823.789 211.05 824.129 210.09C824.459 209.13 823.97 208.18 823.02 207.96L699.309 179.47C698.359 179.25 697.329 179.85 696.989 180.81C696.659 181.77 697.149 182.72 698.099 182.94Z" fill="black"/>
<path d="M700.869 174.97L824.579 203.46C825.529 203.68 826.56 203.08 826.9 202.12C827.23 201.16 826.739 200.21 825.789 199.99L702.079 171.5C701.129 171.28 700.099 171.88 699.759 172.84C699.429 173.8 699.919 174.75 700.869 174.97Z" fill="black"/>
<path d="M663.18 176.37C660.93 177.51 659.58 178.57 659.14 179.54C658.73 180.44 658.86 181.52 659.53 182.77C660.13 183.9 660.99 184.59 662.09 184.86C663.76 185.27 665.56 184.9 667.49 183.76L674.12 179.63L676.64 186.91C677.09 188.05 677.92 188.77 679.13 189.07C680.1 189.31 681.44 189.07 683.13 188.38C684.66 187.78 685.69 186.88 686.23 185.69C686.62 184.83 686.49 183.71 685.86 182.31L682.66 175.94L689.24 173.11C691.49 172.05 692.85 170.99 693.32 169.95C693.73 169.05 693.6 167.96 692.95 166.69C692.35 165.62 691.49 164.94 690.35 164.67C688.7 164.27 686.89 164.62 684.93 165.72L678.35 169.74L675.8 162.62C675.33 161.47 674.5 160.75 673.31 160.46C672.34 160.22 671.01 160.44 669.33 161.11C667.79 161.74 666.75 162.63 666.23 163.8C665.8 164.75 665.9 165.89 666.54 167.21L669.95 173.32L663.17 176.38L663.18 176.37ZM646.35 177.09C645.8 178.3 645.76 179.29 646.24 180.04C646.71 180.79 647.84 181.38 649.62 181.82C650.89 182.13 651.96 182.06 652.84 181.62C653.72 181.17 654.62 180.23 655.56 178.78C656.5 177.33 657.67 175.04 659.09 171.89C659.97 169.94 660.49 168.11 660.66 166.41C660.83 164.71 660.71 163.26 660.3 162.06C659.89 160.86 659.27 159.79 658.44 158.85C657.61 157.91 656.7 157.16 655.71 156.62C654.72 156.07 653.67 155.66 652.53 155.39C651.58 155.16 650.6 155.03 649.58 155C648.56 154.97 647.46 155.04 646.29 155.21C645.12 155.37 643.96 155.72 642.79 156.24C641.62 156.76 640.5 157.42 639.41 158.21C638.32 159 637.27 160.03 636.26 161.3C635.25 162.57 634.38 164.03 633.64 165.67C632.79 167.55 632.14 169.12 631.68 170.36C631.22 171.61 630.89 172.69 630.67 173.6C630.45 174.51 630.43 175.24 630.59 175.78C630.75 176.32 631.03 176.75 631.43 177.06C631.83 177.37 632.41 177.62 633.16 177.8C634.94 178.24 636.33 178.26 637.31 177.87C638.3 177.48 639.06 176.67 639.61 175.46L640.46 173.57L647.18 175.22L646.33 177.11L646.35 177.09ZM651.48 161.95C651.85 162.29 652.03 162.8 652.03 163.47C652.03 164.14 651.8 164.98 651.35 165.98L649.42 170.26L642.7 168.61L644.6 164.4C645.29 162.88 646.04 161.89 646.86 161.43C647.68 160.97 648.67 160.88 649.83 161.17C650.56 161.35 651.11 161.61 651.48 161.95V161.95ZM627.67 156.14L631.44 157.06C632.47 157.31 633.34 157.43 634.07 157.42C634.79 157.42 635.45 157.24 636.04 156.89C636.63 156.55 637.1 155.98 637.46 155.19C637.99 154.02 638.02 153.12 637.56 152.48C637.1 151.84 636.11 151.33 634.6 150.96L617.26 146.72C616.13 146.44 615.18 146.31 614.42 146.32C613.66 146.33 613.02 146.51 612.49 146.86C611.96 147.21 611.53 147.75 611.2 148.49C610.65 149.7 610.7 150.65 611.33 151.34C611.97 152.02 613.13 152.57 614.84 152.99L618.28 153.83L612.43 167.03C611.6 168.94 611.37 170.36 611.75 171.28C612.13 172.21 613.11 172.86 614.71 173.25C615.79 173.51 616.73 173.57 617.53 173.43C618.33 173.28 619.1 172.86 619.84 172.15C620.58 171.44 621.25 170.41 621.86 169.06L627.68 156.13L627.67 156.14Z" fill="#FE504F"/>
<path d="M570.81 293.96L591.36 298.69L584.1 319.52L563.55 314.79L570.81 293.96ZM566.66 292.31L558.96 314.42C558.23 316.51 559.31 318.6 561.38 319.07L583.19 324.09C585.26 324.57 587.52 323.25 588.25 321.16L595.95 299.05C596.68 296.96 595.6 294.87 593.53 294.4L571.72 289.38C569.66 288.9 567.39 290.22 566.66 292.31Z" fill="#FE504F"/>
<path d="M809 108.08C807.45 105.98 805.26 104.85 803.51 104.19C801.97 103.62 800.72 103.42 800.38 103.37L761.23 94.47C760.42 94.29 759.62 94.79 759.43 95.6C759.25 96.41 759.75 97.21 760.56 97.39L799.84 106.32H799.91C799.91 106.32 802.08 106.63 804.03 107.71C805.01 108.25 805.94 108.97 806.6 109.89C807.26 110.82 807.7 111.94 807.7 113.5C807.7 114.36 807.56 115.37 807.21 116.53C806.97 117.32 807.42 118.16 808.22 118.4C809.02 118.64 809.85 118.19 810.09 117.39C810.51 115.99 810.71 114.69 810.71 113.5C810.71 111.31 810.03 109.47 809 108.08V108.08Z" fill="white"/>
<path d="M273.18 85.4001H273.16L273.09 85.4701L273.18 85.4001ZM272.98 77.2501L270.39 94.4201L289.02 104.28L272.97 77.2501H272.98ZM261.06 57.1901L255.12 94.4401C255.12 94.4401 259.95 117.14 272.94 127.91C273.41 128.3 273.88 128.66 274.35 128.99C273.72 119.49 271.97 107.87 268.61 93.4801L269.68 94.05C265.6 88 266.76 78.1301 268.76 70.1701L261.05 57.1901" fill="url(#paint0_radial_258_285)"/>
<path d="M341.81 169.61C299.04 145.28 312.78 116.83 312.78 116.83L268.63 93.4801C287.26 173.19 256.28 167.82 260.66 188.09C273.93 223.84 320.37 268.16 341.38 256.26C353.32 249.5 438.84 186.41 341.82 169.61" fill="#FFA3A3"/>
<path d="M318.66 150.35C305.27 132.4 312.77 116.83 312.77 116.83L268.62 93.4801C272.98 112.16 290.4 165.8 312.48 165.03C319.89 164.77 317.44 153.16 318.66 150.35" fill="#F85E8F"/>
<path d="M413.45 428.8H248.46L217.83 571.31H319.98L340.71 525.62L342.11 571.31H434.67L413.45 428.8Z" fill="#FE504F"/>
<path d="M376.58 547.42C380.03 533.81 384.27 517.39 388.17 503.91C372.35 507.47 356.19 513.75 340.84 519.13C339.97 519.36 339.09 519.58 338.22 519.79C338.54 522.2 338.87 524.6 339.19 527C339.21 527.62 339.22 528.23 339.23 528.85L340.7 525.61L342.1 571.3H397.26C398.79 563.29 374.57 555.33 376.58 547.41V547.42Z" fill="#C72F4F"/>
<path d="M219.74 570.53C220.16 570.53 255.31 570.53 255.31 570.53L279.13 489.27C279.13 489.27 361.92 498.02 413.48 466.48C413.94 465.99 416.57 455.54 417.04 455.07L415.13 428.01L394.58 427.88L394.8 427.49L355.29 389.56L250.14 428.01L219.74 570.52V570.53Z" fill="#C72F4F"/>
<path d="M414.56 205.78C400 181.89 349.44 174.64 349.44 174.64L385.89 296.5C475.17 368.41 480.55 383.26 506.1 318.09C506.1 318.09 427.38 226.81 414.56 205.79" fill="white"/>
<path d="M470.15 313.22L428.8 282.57C428.76 281.62 396.72 205.58 396.72 205.58L349.44 174.64L385.89 296.5C436.44 337.21 460.09 359.63 475.74 359.59C475.74 359.59 478.01 341.22 470.15 313.22Z" fill="#DADADA"/>
<path d="M286.83 189.27L286.85 189.29L286.83 189.27ZM286.79 189.23L286.81 189.25L286.79 189.23ZM286.75 189.19L286.77 189.21L286.75 189.19ZM286.69 189.14L286.73 189.18L286.69 189.14Z" fill="#FBE3E9"/>
<path d="M399.62 192.54C399.62 192.54 367.75 170.31 340.23 167.99L332.88 212.55L265.82 168.96C224.24 170.97 199.88 200.63 199.88 200.63L99.0796 324.29C99.0796 324.29 105.47 383.29 167.43 369.28L223.84 318.67L239.67 461.34C239.67 461.34 392.63 500.57 447.21 437.14L399.62 192.54" fill="white"/>
<path d="M269.12 383.79C269.12 383.79 306.19 347.67 309.04 358.6C311.89 369.53 331.17 358.51 337.34 335.6C338.47 331.38 417.34 279.72 416.45 274.96C416.21 273.67 337.26 319.54 336.85 318.21L262.82 366.06L233.32 227.2C232.93 254.26 208.85 295.02 208.85 295.02L135.62 311.62C135.62 311.62 112.01 342.02 102.88 338.67C109.25 355.14 125.79 378.72 167.44 369.3L223.85 318.69L239.68 461.36C239.68 461.36 277.85 471.15 322.85 473.04L280.54 454.38L269.13 383.81L269.12 383.79Z" fill="#DADADA"/>
<path d="M283.01 105.99L283.19 106.07L283.01 105.99Z" fill="url(#paint1_radial_258_285)"/>
<path d="M287.52 106.72L287.71 106.83L287.52 106.72Z" fill="url(#paint2_radial_258_285)"/>
<path d="M275.95 75.6401L275.93 75.6601L275.85 75.7401L275.95 75.6401V75.6401Z" fill="url(#paint3_radial_258_285)"/>
<path d="M316 29.04L296.88 41.7C306.02 39.9 314.47 38.2201 321.94 36.7101L316 29.04Z" fill="url(#paint4_radial_258_285)"/>
<path d="M321.94 36.7101C314.46 38.2201 306.02 39.9001 296.88 41.7001L272.99 57.5201C272.99 57.5201 270.55 63.0801 268.78 70.1601L272.98 77.2401L273.58 73.2301L346.55 68.4801L321.94 36.7001" fill="url(#paint5_radial_258_285)"/>
<path d="M269.69 94.05C269.89 94.34 270.09 94.6201 270.32 94.9001L270.39 94.4201L269.69 94.05Z" fill="url(#paint6_radial_258_285)"/>
<path d="M309.39 23.44C207.98 24.76 263.01 119.27 266.78 106C270.11 123.38 286.66 139.51 305.11 143.11C340.46 150.01 347.4 103.28 347.4 103.28C347.4 103.28 345.94 88 346.3 78.65C347.65 43.9 343.31 22.51 309.39 23.44V23.44Z" fill="#FFA3A3"/>
<path d="M346.3 78.6501C347.19 55.8801 345.62 38.8501 334.9 30.0701C333.51 40.8401 330.8 59.3901 312.61 67.2601C317.95 76.5801 324.41 94.1801 324.41 94.1801C344.69 90.1201 328.1 107.82 328.1 107.82C328.1 107.82 286.06 146.54 315.93 143.96C345.8 141.38 347.4 103.27 347.4 103.27C347.4 103.27 345.94 87.9901 346.3 78.6401V78.6501Z" fill="#FCC8BA"/>
<path d="M348.75 40.4401C348.75 40.4401 375.13 -4.70994 305.16 10.2601C305.16 10.2601 307.59 -1.60994 289.74 0.870057C269.26 3.71006 243.59 27.6101 252.19 42.8901C252.19 42.8901 220.9 58.9801 253.97 92.4501C253.97 92.4501 253.48 51.15 266.56 96.58L269.21 96.6501C284.95 77.7001 274.54 60.5501 274.54 60.5501C286.61 70.1601 332.43 63.0101 306.28 52.5001C306.28 52.5001 325.73 57.6401 333.55 54.2901C338.38 52.2201 339.36 45.3501 331.98 42.4401C331.98 42.4401 341.14 43.3301 343.83 46.0201C346.51 48.7001 346.82 69.3901 346.82 69.3901C355.5 67.8701 376.47 35.9601 348.75 40.4301V40.4401Z" fill="#2D2D2D"/>
<path d="M313.44 203.54L313.45 203.53L313.44 203.54Z" fill="#FFCD91"/>
<path d="M308.1 279.57C308.23 279.7 308.41 279.76 308.63 279.76C308.45 279.71 308.27 279.65 308.09 279.57" fill="url(#paint7_radial_258_285)"/>
<path d="M378.27 210.03C378.05 210.03 377.859 210.09 377.729 210.22C377.909 210.14 378.09 210.08 378.27 210.03Z" fill="url(#paint8_radial_258_285)"/>
<path d="M315.95 77.77L323.03 96.27L324.26 96.09C324.32 96.09 325.19 95.96 326.32 95.96C327.54 95.96 329.07 96.12 330.07 96.59C330.58 96.82 330.93 97.1 331.16 97.41C331.38 97.72 331.53 98.0901 331.54 98.7301C331.54 99.4601 331.3 100.56 330.57 102.04C329.85 103.52 328.66 105.37 326.87 107.6C326.33 108.27 326.44 109.25 327.11 109.78C327.78 110.32 328.76 110.21 329.29 109.54C331.18 107.18 332.49 105.17 333.35 103.4C334.21 101.64 334.63 100.12 334.63 98.7301C334.63 97.5201 334.28 96.41 333.65 95.57C333.18 94.94 332.6 94.45 331.97 94.09C331.04 93.55 330.03 93.26 329.05 93.08C328.07 92.91 327.12 92.86 326.3 92.86C324.87 92.86 323.84 93.02 323.78 93.02L324.01 94.55L325.46 93.99L318.82 76.66C318.51 75.86 317.62 75.46 316.82 75.77C316.02 76.08 315.62 76.97 315.93 77.77H315.95Z" fill="#2D2D2D"/>
<path d="M307.57 82.5001C307.57 85.5501 305.81 88.0301 303.64 88.0301C301.47 88.0301 299.71 85.5501 299.71 82.5001C299.71 79.4501 301.47 76.9701 303.64 76.9701C305.81 76.9701 307.57 79.4501 307.57 82.5001Z" fill="#2D2D2D"/>
<path d="M335.84 81.28C335.84 84.34 334.08 86.81 331.91 86.81C329.74 86.81 327.98 84.33 327.98 81.28C327.98 78.23 329.74 75.75 331.91 75.75C334.08 75.75 335.84 78.23 335.84 81.28Z" fill="#2D2D2D"/>
<path d="M304.57 117.72C304.62 117.81 305.39 119.42 307.02 121.09C307.84 121.92 308.87 122.77 310.15 123.43C311.43 124.08 312.96 124.53 314.7 124.52C316.75 124.52 319.05 123.9 321.51 122.43C322.25 121.99 322.49 121.04 322.05 120.3C321.61 119.56 320.66 119.32 319.92 119.76C317.83 120.99 316.12 121.41 314.69 121.41C313.48 121.41 312.46 121.11 311.55 120.65C310.19 119.96 309.12 118.88 308.4 117.96C308.04 117.5 307.77 117.08 307.6 116.79C307.51 116.64 307.45 116.53 307.41 116.45L307.37 116.37L306.97 116.55L307.37 116.36L306.97 116.55L307.37 116.36C307 115.59 306.07 115.26 305.3 115.64C304.53 116.02 304.2 116.94 304.58 117.71L304.57 117.72Z" fill="#2D2D2D"/>
<path d="M227.85 223.52L227.87 223.57C228.35 224.65 236.7 244.03 236.7 268.45C236.7 282.25 234.05 297.64 225.88 312.33C225.46 313.08 225.73 314.02 226.48 314.44C227.23 314.86 228.17 314.59 228.59 313.84C237.07 298.58 239.8 282.64 239.8 268.45C239.8 242.51 230.73 222.36 230.68 222.25C230.33 221.47 229.41 221.12 228.63 221.47C227.85 221.82 227.5 222.74 227.85 223.52V223.52Z" fill="#2D2D2D"/>
<path d="M280.81 226.24L304.31 210.41L332.61 212.81L265.55 174.73C265.55 174.73 271.31 170.89 270.35 162.74C270.35 162.74 257.88 165.14 256.92 176.17C255.96 187.2 280.81 226.24 280.81 226.24Z" fill="#DADADA"/>
<path d="M284.64 218.08L303.83 201.77L332.88 212.55L270.25 168.67L271.98 157.16C271.98 157.16 260.18 159.56 259.22 170.59C258.26 181.62 284.64 218.08 284.64 218.08V218.08Z" fill="white"/>
<path d="M359.23 195.78L333.57 212.81L330.45 162.69L321.65 154.73C321.65 154.73 333.53 155.55 342.2 162.45C350.87 169.34 359.23 195.79 359.23 195.79V195.78Z" fill="white"/>
<path d="M343.62 200.5L361.24 204.3L360.97 202.39C360.96 202.33 359.59 192.69 355.5 181.99C353.79 177.53 350.86 172.91 348.08 168.69C347.04 168.78 353.54 183.75 355.49 190.44C356.52 193.96 357.22 197.06 357.67 199.26C357.79 199.86 357.89 200.38 357.98 200.84L345.39 192.59L332.33 213.52C332.33 213.52 305.71 198.83 305.14 199.3L284.97 216.07C281.83 211.12 270.44 193.18 266.13 186.2C263.7 182.27 262.3 178.31 261.52 175.35C261.13 173.87 260.89 172.64 260.75 171.78C260.68 171.35 260.63 171.02 260.61 170.8C260.6 170.69 260.59 170.61 260.58 170.55V170.49C260.51 169.74 259.86 169.19 259.12 169.26C258.38 169.33 257.83 169.98 257.9 170.72C257.92 170.84 258.64 179.17 263.85 187.62C268.9 195.79 283.52 218.81 283.53 218.81L284.35 220.1L303.44 204.23L333.41 216.9L343.64 200.5H343.62Z" fill="#2D2D2D"/>
<path d="M320.99 569.97L343.26 519.77L401.03 500C401.73 499.76 402.11 498.99 401.87 498.29C401.63 497.59 400.86 497.21 400.16 497.45L341.28 517.6L318.53 568.87C318.23 569.55 318.53 570.34 319.21 570.65C319.89 570.95 320.68 570.65 320.99 569.97V569.97Z" fill="#2D2D2D"/>
<path d="M282.89 474.14C282.82 474.33 280.7 479.75 274.01 485.51C267.32 491.27 256.05 497.42 237.46 499.05C236.72 499.11 236.17 499.77 236.24 500.51C236.3 501.25 236.96 501.8 237.7 501.73C257.08 500.05 269.04 493.48 276.11 487.26C283.18 481.04 285.37 475.22 285.42 475.07C285.68 474.37 285.32 473.6 284.63 473.34C283.93 473.08 283.16 473.44 282.9 474.13L282.89 474.14Z" fill="#2D2D2D"/>
<path d="M241.26 465.15L217.14 567.45C216.97 568.17 217.42 568.9 218.14 569.07C218.86 569.24 219.59 568.79 219.76 568.07L243.88 465.77C244.05 465.05 243.6 464.32 242.88 464.15C242.16 463.98 241.43 464.43 241.26 465.15Z" fill="#2D2D2D"/>
<path d="M311.11 15.88L311.2 15.86C312.14 15.6 320.26 13.51 328.31 13.51C332.43 13.51 336.52 14.07 339.56 15.61C341.08 16.38 342.34 17.38 343.27 18.66C344.2 19.95 344.82 21.54 345.01 23.57C345.06 24.12 345.55 24.52 346.1 24.47C346.65 24.42 347.05 23.93 347 23.38C346.78 21.04 346.04 19.07 344.89 17.49C343.16 15.1 340.58 13.61 337.68 12.72C334.78 11.83 331.52 11.51 328.3 11.51C319.37 11.51 310.61 13.95 310.57 13.95C310.04 14.1 309.73 14.65 309.87 15.18C310.02 15.71 310.57 16.02 311.1 15.88H311.11Z" fill="white"/>
<path d="M265.83 21.37C268.36 17.13 273.45 13.48 279.01 10.96C284.56 8.43004 290.57 7.02003 294.78 7.02003C296.58 7.02003 298.04 7.29004 298.92 7.74004C299.36 7.96004 299.66 8.21003 299.84 8.47003C300.02 8.73003 300.11 9.01003 300.12 9.41003C300.12 9.96003 299.9 10.76 299.28 11.79C299 12.26 299.15 12.88 299.62 13.16C300.09 13.44 300.71 13.29 300.99 12.82C301.72 11.6 302.11 10.48 302.11 9.41003C302.11 8.65003 301.89 7.92003 301.47 7.33003C300.84 6.44003 299.87 5.88003 298.73 5.53003C297.59 5.18003 296.26 5.03003 294.77 5.03003C290.14 5.03003 283.96 6.52002 278.17 9.15002C272.39 11.79 266.99 15.56 264.1 20.35C263.82 20.82 263.97 21.44 264.44 21.72C264.91 22 265.53 21.85 265.81 21.38L265.83 21.37Z" fill="white"/>
<path d="M182.26 419.53L151.79 439.22C146.35 442.74 139.08 441.18 135.56 435.73C132.04 430.28 133.6 423.01 139.05 419.5L169.52 399.81L182.27 419.53H182.26Z" fill="#1D1D1B"/>
<path d="M535.3 156.04L535.36 156.12L600.99 128.06L607.31 137.85L554.76 186.15L554.79 186.19L554.71 186.25L535.3 156.04Z" fill="#FE504F"/>
<path d="M430.13 266.75L211.06 408.31C214.03 410.91 217.58 412.67 221.36 413.49C227.15 414.73 233.34 413.78 238.7 410.32L317.72 359.26C321.16 357.04 325.75 358.02 327.97 361.46C330.19 364.9 329.21 369.49 325.77 371.71L246.75 422.77C231 432.94 210.58 429.92 198.33 416.54L185.63 424.75L179.13 414.7L172.64 404.65L166.14 394.6L256.46 336.24L327.34 290.44L410.64 236.61L430.13 266.77V266.75Z" fill="#FE504F"/>
<path d="M535.23 156.097L410.655 236.595L430.139 266.748L554.714 186.249L535.23 156.097Z" fill="#1D1D1B"/>
<path d="M612.23 132.74L606.6 136.22C606.52 136.27 606.44 136.32 606.36 136.37L602.24 129.99L608.02 126.49L622.46 121.26L612.22 132.73L612.23 132.74Z" fill="#1D1D1B"/>
<path d="M543.86 159.95L599.45 135.29C600.21 134.95 600.55 134.07 600.21 133.31C599.87 132.55 598.99 132.21 598.23 132.55L542.64 157.21C541.88 157.55 541.54 158.43 541.88 159.19C542.22 159.95 543.1 160.29 543.86 159.95Z" fill="white"/>
<path d="M420.76 217.29C420.76 217.29 421.15 223.02 426.79 222.49C430.3 222.16 439.44 243.4 443.62 248.8L472.45 358.37C472.45 358.37 513.53 371.66 522.82 331.93C532.11 292.2 473.16 246.47 473.16 246.47C473.03 245.95 482.57 241.06 483.02 233.28C483.47 225.5 482.91 225.49 487.69 222.46C492.47 219.43 489.08 215.77 489.08 215.77C483.89 213.89 478.38 217.09 474.07 221.88C474.02 221.79 473.97 221.71 473.92 221.62C473.69 221.06 473.42 220.43 473.12 219.77C472.91 219.08 470.36 213.6 470.93 213.48C470.41 207.07 468 199.18 459.26 199.4C459.26 199.4 454.89 201.8 458.45 206.19C459.63 207.64 460.13 209.42 460.28 211.14C460.12 211.14 459.96 211.13 459.79 211.12C457.09 205.07 451.46 196.4 442.44 200.52C442.44 200.52 439.36 204.44 444.37 207.08C446.51 208.21 447.83 210.27 448.64 212.27C444.28 207.28 436.3 200.61 428.89 207.24C428.89 207.24 427.11 211.9 432.67 212.93C435.83 213.52 438.1 216.12 439.47 218.25C439.31 218.34 439.16 218.44 439.01 218.53C434.56 215.14 424.87 209.77 420.75 217.28L420.76 217.29Z" fill="#FFA3A3"/>
<path d="M473.16 246.47C473.03 245.95 482.57 241.06 483.02 233.28C483.47 225.5 482.91 225.49 487.69 222.46C492.47 219.43 489.08 215.77 489.08 215.77C483.89 213.89 478.38 217.09 474.07 221.88C474.02 221.79 473.97 221.71 473.92 221.62C473.69 221.06 473.42 220.43 473.12 219.77C472.91 219.08 470.36 213.6 470.93 213.48C470.41 207.07 468 199.18 459.26 199.4L459.23 199.42C467.39 210.53 472.67 224.8 471.42 238.24C470.95 242.96 459.5 245.69 459.57 245.74C464.6 250.86 475.2 262.05 480.23 267.17C519.24 316.18 510.46 343.58 510.46 343.58C509.32 355.04 485.06 360.44 485.06 360.44C497.95 361.05 516.86 357.31 522.79 331.93C532.08 292.2 473.13 246.47 473.13 246.47H473.16Z" fill="#FCC8BA"/>
<path d="M493.23 265.02C480.3 273.02 467.26 280.87 454.03 288.37L472.44 358.36C472.44 358.36 513.52 371.65 522.81 331.92C528.39 308.04 509.33 282 493.22 265.01L493.23 265.02Z" fill="white"/>
<path d="M507.21 348.91C506.11 346.74 504.99 344.58 503.84 342.44C491.5 321.97 478.09 302.07 466.3 281.28C462.23 283.67 458.14 286.04 454.04 288.37L472.45 358.36C472.45 358.36 494.01 365.33 509.42 354.07C508.63 352.39 507.87 350.68 507.21 348.91Z" fill="#DADADA"/>
<path d="M470.23 343.53L455.95 288.71L489.32 269.42C490.1 268.97 490.37 267.97 489.92 267.19C489.47 266.41 488.47 266.14 487.69 266.59L452.17 287.12L467.07 344.34C467.3 345.21 468.19 345.73 469.06 345.51C469.93 345.28 470.45 344.39 470.23 343.52V343.53Z" fill="#2D2D2D"/>
<path d="M312.61 341.34C312.68 341.18 312.75 341.01 312.82 340.84C315.13 341.89 318.03 343.76 319.06 346.81C320.88 352.17 325.24 349.74 325.24 349.74C330.74 341.45 323 334.52 317.44 330.91C319.53 331.43 321.76 332.44 323.18 334.39C326.51 338.97 329.95 335.36 329.95 335.36C332.74 325.84 323.36 321.51 316.98 319.7C316.95 319.54 316.93 319.38 316.89 319.22C318.62 319.12 320.45 319.37 322.05 320.33C326.91 323.24 328.65 318.56 328.65 318.56C327.62 309.88 319.47 308.62 313.05 309.02C313.01 309.61 307.23 307.86 306.52 307.75C305.83 307.55 305.17 307.37 304.58 307.23C304.49 307.19 304.4 307.16 304.3 307.12C308.43 302.17 310.81 296.26 308.21 291.4C308.21 291.4 304.1 288.57 301.78 293.73C299.46 298.89 299.38 298.35 291.74 299.9C284.1 301.45 280.63 311.6 280.09 311.54L154.58 314.43L157.66 391.34C157.66 391.34 263.01 353.46 282 341.11C287.95 344.48 310.27 350.49 310.44 354.01C310.71 359.66 316.44 359.23 316.44 359.23C323.29 354.08 316.59 345.25 312.6 341.33L312.61 341.34Z" fill="#FFA3A3"/>
<path d="M315.59 314.09C320.25 314.09 324.58 315.17 328.4 317.07C326.65 309.74 319.09 308.66 313.07 309.03C313.03 309.62 307.25 307.87 306.54 307.76C305.85 307.56 305.19 307.38 304.6 307.24C304.51 307.2 304.42 307.17 304.32 307.13C308.45 302.18 310.83 296.27 308.23 291.41C308.23 291.41 304.12 288.58 301.8 293.74C299.48 298.9 299.4 298.35 291.76 299.91C284.12 301.46 280.65 311.61 280.11 311.55L154.6 314.44L155.07 326.31C195.46 326.74 246.16 329.43 246.16 329.43C246.16 329.43 277.16 321.54 277.64 321.36C286.82 317.94 296.65 316.1 306.45 315.63C309.43 314.64 312.54 314.1 315.59 314.1V314.09Z" fill="#FCC8BA"/>
<path d="M234.54 311.31L120.61 312.7C105.46 315.22 90.7397 324.64 90.7397 351.71C90.7397 407.45 153.74 392.94 153.74 392.94C153.74 392.94 209.1 375.69 247.21 359.39C242.95 343.36 238.56 327.36 234.54 311.31V311.31Z" fill="white"/>
<path d="M120.37 366.48C111.52 368.86 102.68 367.33 94.7199 363.12C93.5499 362.5 92.4499 361.79 91.3999 361.01C98.0999 405.74 153.74 392.93 153.74 392.93C153.74 392.93 209.1 375.67 247.21 359.38C245.39 352.55 243.56 345.72 241.73 338.89C201 346.83 160.45 355.7 120.37 366.47V366.48Z" fill="#DADADA"/>
<path d="M123.51 313.27L233.97 312.2L245.28 359.25C245.48 360.09 246.32 360.6 247.16 360.4C248 360.2 248.51 359.36 248.31 358.52L236.42 309.05L123.47 310.15C122.61 310.15 121.92 310.86 121.92 311.73C121.92 312.59 122.63 313.28 123.5 313.28L123.51 313.27Z" fill="#2D2D2D"/>
<path d="M416.05 473.74L426.03 550.37C426.1 550.92 426.6 551.3 427.15 551.23C427.7 551.16 428.08 550.66 428.01 550.11L418.03 473.48C417.96 472.93 417.46 472.55 416.91 472.62C416.36 472.69 415.98 473.19 416.05 473.74Z" fill="white"/>
<path d="M838.71 576.64H30.2297C26.1897 576.64 22.9097 573.36 22.9097 569.32C22.9097 565.28 26.1897 562 30.2297 562H838.71C842.75 562 846.03 565.28 846.03 569.32C846.03 573.36 842.75 576.64 838.71 576.64Z" fill="#2D2D2D"/>
<defs>
<radialGradient id="paint0_radial_258_285" cx="0" cy="0" r="1" gradientUnits="userSpaceOnUse" gradientTransform="translate(39.8491 -63.9765) rotate(131.74) scale(307.908)">
<stop stop-color="#868686"/>
<stop offset="1" stop-color="#1D1D1B"/>
</radialGradient>
<radialGradient id="paint1_radial_258_285" cx="0" cy="0" r="1" gradientUnits="userSpaceOnUse" gradientTransform="translate(351.592 72.8224) rotate(9.03226) scale(143.93 113.009)">
<stop stop-color="#F85E80"/>
<stop offset="0.03" stop-color="#F85E80"/>
<stop offset="0.45" stop-color="#F85480"/>
<stop offset="0.75" stop-color="#F85079"/>
<stop offset="1" stop-color="#F84A70"/>
</radialGradient>
<radialGradient id="paint2_radial_258_285" cx="0" cy="0" r="1" gradientUnits="userSpaceOnUse" gradientTransform="translate(389.741 34.0248) rotate(9.0287) scale(156.649 156.627)">
<stop stop-color="#F85E80"/>
<stop offset="0.03" stop-color="#F85E80"/>
<stop offset="0.45" stop-color="#F85480"/>
<stop offset="0.75" stop-color="#F85079"/>
<stop offset="1" stop-color="#F84A70"/>
</radialGradient>
<radialGradient id="paint3_radial_258_285" cx="0" cy="0" r="1" gradientUnits="userSpaceOnUse" gradientTransform="translate(384.951 40.9615) rotate(6.15813) scale(155.191 155.145)">
<stop stop-color="#FFFFE5"/>
<stop offset="0.03" stop-color="#FFFFE5"/>
<stop offset="0.45" stop-color="#FFE5E5"/>
<stop offset="0.66" stop-color="#FFDEDE"/>
<stop offset="0.94" stop-color="#FFCCCC"/>
<stop offset="1" stop-color="#FFC8C8"/>
</radialGradient>
<radialGradient id="paint4_radial_258_285" cx="0" cy="0" r="1" gradientUnits="userSpaceOnUse" gradientTransform="translate(388.323 86.5389) scale(119.501)">
<stop stop-color="#8F86D9"/>
<stop offset="0.31" stop-color="#8F86D9"/>
<stop offset="1" stop-color="#8F72C2"/>
</radialGradient>
<radialGradient id="paint5_radial_258_285" cx="0" cy="0" r="1" gradientUnits="userSpaceOnUse" gradientTransform="translate(388.323 86.5389) scale(119.501)">
<stop stop-color="#FFEFE6"/>
<stop offset="0.31" stop-color="#FFEFE6"/>
<stop offset="1" stop-color="#FFCBCE"/>
</radialGradient>
<radialGradient id="paint6_radial_258_285" cx="0" cy="0" r="1" gradientUnits="userSpaceOnUse" gradientTransform="translate(388.326 86.5388) scale(119.503 119.502)">
<stop stop-color="#F85881"/>
<stop offset="0.31" stop-color="#F85881"/>
<stop offset="1" stop-color="#F84B74"/>
</radialGradient>
<radialGradient id="paint7_radial_258_285" cx="0" cy="0" r="1" gradientUnits="userSpaceOnUse" gradientTransform="translate(303.614 275.615) rotate(-32.0999) scale(11.6846)">
<stop stop-color="#90AA9E"/>
<stop offset="0.45" stop-color="#889C8F"/>
<stop offset="1" stop-color="#819081"/>
</radialGradient>
<radialGradient id="paint8_radial_258_285" cx="0" cy="0" r="1" gradientUnits="userSpaceOnUse" gradientTransform="translate(373.315 214.295) rotate(31.3985) scale(11.6851 11.6847)">
<stop stop-color="#90AA9E"/>
<stop offset="0.45" stop-color="#889C8F"/>
<stop offset="1" stop-color="#819081"/>
</radialGradient>
</defs>
</svg>
